<svg width="1085" height="604" viewBox="0 0 1085 604" fill="none" xmlns="http://www.w3.org/2000/svg">
<g id="desk-illustration">
<g id="Layer 2">
<g id="Layer 1">
<path id="Vector" d="M158.731 568.036H20.4307C15.647 568.036 11.0592 566.133 7.67661 562.745C4.294 559.357 2.39368 554.762 2.39368 549.97C2.39368 545.179 4.294 540.584 7.67661 537.196C11.0592 533.808 15.647 531.904 20.4307 531.904H158.731" fill="#ECEDE2"/>
<path id="Vector_2" d="M27.0971 548.723H4.1768C3.70065 548.723 3.244 548.534 2.90731 548.197C2.57062 547.859 2.38147 547.402 2.38147 546.925C2.38147 546.448 2.57062 545.991 2.90731 545.654C3.244 545.316 3.70065 545.127 4.1768 545.127H27.0971C27.5733 545.127 28.0299 545.316 28.3666 545.654C28.7033 545.991 28.8925 546.448 28.8925 546.925C28.8925 547.402 28.7033 547.859 28.3666 548.197C28.0299 548.534 27.5733 548.723 27.0971 548.723Z" fill="#1E1E30"/>
<path id="Vector_3" d="M158.731 542.945H2.39368V545.343H158.731V542.945Z" fill="#DFE0CD"/>
<path id="Vector_4" d="M158.731 549.023H2.39368V551.421H158.731V549.023Z" fill="#DFE0CD"/>
<path id="Vector_5" d="M158.731 555.09H2.39368V557.487H158.731V555.09Z" fill="#DFE0CD"/>
<path id="Vector_6" d="M158.731 561.156H7.18152V563.554H158.731V561.156Z" fill="#DFE0CD"/>
<path id="Vector_7" d="M158.731 536.88H7.18152V539.277H158.731V536.88Z" fill="#DFE0CD"/>
<path id="Vector_8" d="M99.94 557.619H4.78764C4.31149 557.619 3.85484 557.429 3.51815 557.092C3.18146 556.755 2.99231 556.298 2.99231 555.821C2.99231 555.344 3.18146 554.886 3.51815 554.549C3.85484 554.212 4.31149 554.022 4.78764 554.022H99.94C100.416 554.022 100.873 554.212 101.209 554.549C101.546 554.886 101.735 555.344 101.735 555.821C101.735 556.298 101.546 556.755 101.209 557.092C100.873 557.429 100.416 557.619 99.94 557.619Z" fill="#1E1E30"/>
<path id="Vector_9" d="M48.6534 531.7H106.176C106.176 533.392 105.505 535.014 104.311 536.21C103.117 537.406 101.497 538.078 99.8083 538.078H55.0568C53.368 538.078 51.7485 537.406 50.5543 536.21C49.3602 535.014 48.6893 533.392 48.6893 531.7H48.6534Z" fill="white"/>
<path id="Vector_10" d="M158.731 570.434H20.4308C15.0122 570.434 9.81557 568.278 5.98405 564.44C2.15253 560.602 0 555.397 0 549.97C0 544.543 2.15253 539.338 5.98405 535.5C9.81557 531.663 15.0122 529.507 20.4308 529.507H158.731C159.366 529.507 159.975 529.759 160.424 530.209C160.872 530.659 161.125 531.269 161.125 531.904C161.125 532.54 160.872 533.15 160.424 533.6C159.975 534.049 159.366 534.302 158.731 534.302H20.4308C16.282 534.302 12.303 535.953 9.36935 538.891C6.43567 541.829 4.78754 545.815 4.78754 549.97C4.78754 554.126 6.43567 558.111 9.36935 561.049C12.303 563.988 16.282 565.638 20.4308 565.638H158.731C159.366 565.638 159.975 565.891 160.424 566.341C160.872 566.79 161.125 567.4 161.125 568.036C161.125 568.672 160.872 569.282 160.424 569.731C159.975 570.181 159.366 570.434 158.731 570.434Z" fill="#1E1E30"/>
<path id="Vector_11" d="M987.094 520.06C986.503 520.064 985.931 519.848 985.488 519.454C985.046 519.06 984.766 518.516 984.701 517.927L975.868 436.996C975.798 436.36 975.983 435.723 976.383 435.224C976.782 434.724 977.363 434.405 977.998 434.335C978.633 434.265 979.27 434.45 979.768 434.851C980.266 435.251 980.585 435.833 980.655 436.469L989.488 517.411C989.555 518.042 989.37 518.674 988.973 519.168C988.576 519.663 987.999 519.979 987.37 520.048L987.094 520.06Z" fill="#1E1E30"/>
<path id="Vector_12" d="M973.941 473.32C973.5 473.32 973.074 473.157 972.746 472.863C972.417 472.569 972.207 472.164 972.157 471.725L969.357 447.57C969.306 447.097 969.441 446.623 969.734 446.249C970.027 445.875 970.454 445.63 970.925 445.568L978.405 444.644C978.641 444.615 978.88 444.633 979.109 444.696C979.338 444.76 979.552 444.868 979.739 445.014C979.927 445.161 980.083 445.343 980.2 445.55C980.318 445.757 980.393 445.985 980.422 446.221C980.451 446.457 980.433 446.697 980.37 446.926C980.307 447.155 980.199 447.37 980.053 447.557C979.906 447.745 979.725 447.902 979.518 448.019C979.311 448.136 979.084 448.212 978.848 448.241L973.127 448.948L975.724 471.342C975.778 471.815 975.642 472.291 975.346 472.664C975.049 473.037 974.617 473.278 974.144 473.332L973.941 473.32Z" fill="#1E1E30"/>
<path id="Vector_13" d="M997.927 517.663H997.628C997.316 517.624 997.015 517.524 996.741 517.369C996.468 517.214 996.227 517.006 996.034 516.758C995.84 516.51 995.698 516.226 995.614 515.922C995.53 515.619 995.507 515.302 995.545 514.989L1005.38 434.047C1005.46 433.411 1005.79 432.832 1006.29 432.436C1006.79 432.04 1007.43 431.861 1008.06 431.937C1008.7 432.013 1009.28 432.339 1009.67 432.843C1010.07 433.346 1010.25 433.987 1010.17 434.622L1000.31 515.553C1000.24 516.136 999.957 516.672 999.518 517.061C999.079 517.45 998.513 517.664 997.927 517.663Z" fill="#1E1E30"/>
<path id="Vector_14" d="M1024.53 517.663H1024.25C1023.93 517.624 1023.63 517.524 1023.36 517.369C1023.09 517.214 1022.85 517.006 1022.65 516.758C1022.46 516.51 1022.32 516.226 1022.23 515.922C1022.15 515.619 1022.13 515.302 1022.16 514.989L1032.03 434.059C1032.06 433.744 1032.16 433.44 1032.32 433.163C1032.47 432.887 1032.68 432.644 1032.93 432.448C1033.18 432.252 1033.46 432.107 1033.77 432.021C1034.07 431.936 1034.39 431.911 1034.71 431.949C1035.02 431.987 1035.32 432.086 1035.6 432.241C1035.88 432.397 1036.12 432.605 1036.32 432.855C1036.51 433.104 1036.66 433.389 1036.74 433.695C1036.83 434 1036.85 434.319 1036.81 434.634L1026.93 515.553C1026.86 516.138 1026.57 516.676 1026.13 517.065C1025.69 517.454 1025.12 517.667 1024.53 517.663Z" fill="#1E1E30"/>
<path id="Vector_15" d="M1050.48 479.386H977.292V570.566H1050.48V479.386Z" fill="#28F3BB"/>
<path id="Vector_16" d="M992.002 481.088H979.626V568.78H992.002V481.088Z" fill="#1BDDA1"/>
<path id="Vector_17" d="M1029.51 481.088H1025.31V569.379H1029.51V481.088Z" fill="white"/>
<path id="Vector_18" opacity="0.56" d="M1035.22 481.088H1033.15V569.379H1035.22V481.088Z" fill="white"/>
<path id="Vector_19" opacity="0.56" d="M1041.78 481.088H1039.71V569.379H1041.78V481.088Z" fill="white"/>
<path id="Vector_20" d="M1050.48 573.024H977.292C976.657 573.024 976.048 572.771 975.6 572.321C975.151 571.872 974.898 571.262 974.898 570.626V479.386C974.898 478.75 975.151 478.14 975.6 477.691C976.048 477.241 976.657 476.988 977.292 476.988H1050.48C1051.12 476.988 1051.73 477.241 1052.17 477.691C1052.62 478.14 1052.88 478.75 1052.88 479.386V570.626C1052.88 571.262 1052.62 571.872 1052.17 572.321C1051.73 572.771 1051.12 573.024 1050.48 573.024ZM979.686 568.228H1048.09V481.783H979.686V568.228Z" fill="#1E1E30"/>
<g id="Group" opacity="0.15">
<path id="Vector_21" opacity="0.15" d="M954.635 151.647H954.288C953.811 151.647 953.355 151.458 953.018 151.12C952.681 150.783 952.492 150.326 952.492 149.849C952.492 149.372 952.681 148.915 953.018 148.577C953.355 148.24 953.811 148.051 954.288 148.051H954.635C955.111 148.051 955.567 148.24 955.904 148.577C956.241 148.915 956.43 149.372 956.43 149.849C956.43 150.326 956.241 150.783 955.904 151.12C955.567 151.458 955.111 151.647 954.635 151.647Z" fill="#1B3C47"/>
<path id="Vector_22" opacity="0.15" d="M967.716 151.647H960.535C960.059 151.647 959.602 151.458 959.266 151.12C958.929 150.783 958.74 150.326 958.74 149.849C958.74 149.372 958.929 148.914 959.266 148.577C959.602 148.24 960.059 148.051 960.535 148.051H964.126V129.997H908.159V148.051H940.751C941.227 148.051 941.683 148.24 942.02 148.577C942.357 148.914 942.546 149.372 942.546 149.849C942.546 150.326 942.357 150.783 942.02 151.12C941.683 151.458 941.227 151.647 940.751 151.647H904.569V126.4H967.716V151.647Z" fill="#1B3C47"/>
<path id="Vector_23" opacity="0.15" d="M949.441 151.647H946.245C945.769 151.647 945.312 151.458 944.976 151.12C944.639 150.783 944.45 150.326 944.45 149.849C944.45 149.372 944.639 148.915 944.976 148.577C945.312 148.24 945.769 148.051 946.245 148.051H949.441C949.917 148.051 950.374 148.24 950.71 148.577C951.047 148.915 951.236 149.372 951.236 149.849C951.236 150.326 951.047 150.783 950.71 151.12C950.374 151.458 949.917 151.647 949.441 151.647Z" fill="#1B3C47"/>
<path id="Vector_24" opacity="0.15" d="M919.53 194.935H904.569V169.688H949.021C949.497 169.688 949.954 169.878 950.291 170.215C950.627 170.552 950.816 171.01 950.816 171.487C950.816 171.964 950.627 172.421 950.291 172.758C949.954 173.095 949.497 173.285 949.021 173.285H908.16V191.339H919.53C920.006 191.339 920.463 191.528 920.799 191.865C921.136 192.203 921.325 192.66 921.325 193.137C921.325 193.614 921.136 194.071 920.799 194.408C920.463 194.746 920.006 194.935 919.53 194.935Z" fill="#1B3C47"/>
<path id="Vector_25" opacity="0.15" d="M931.26 194.935H924.785C924.308 194.935 923.852 194.746 923.515 194.409C923.178 194.071 922.989 193.614 922.989 193.137C922.989 192.66 923.178 192.203 923.515 191.866C923.852 191.528 924.308 191.339 924.785 191.339H931.26C931.736 191.339 932.193 191.528 932.529 191.866C932.866 192.203 933.055 192.66 933.055 193.137C933.055 193.614 932.866 194.071 932.529 194.409C932.193 194.746 931.736 194.935 931.26 194.935Z" fill="#1B3C47"/>
<path id="Vector_26" opacity="0.15" d="M936.203 194.935H936.071C935.595 194.935 935.139 194.746 934.802 194.409C934.465 194.071 934.276 193.614 934.276 193.137C934.276 192.66 934.465 192.203 934.802 191.866C935.139 191.528 935.595 191.339 936.071 191.339H936.203C936.679 191.339 937.136 191.528 937.473 191.866C937.809 192.203 937.998 192.66 937.998 193.137C937.998 193.614 937.809 194.071 937.473 194.409C937.136 194.746 936.679 194.935 936.203 194.935Z" fill="#1B3C47"/>
<path id="Vector_27" opacity="0.15" d="M967.717 194.935H941.29C940.814 194.935 940.357 194.746 940.02 194.408C939.684 194.071 939.495 193.614 939.495 193.137C939.495 192.66 939.684 192.203 940.02 191.865C940.357 191.528 940.814 191.339 941.29 191.339H964.126V173.285H956.203C955.727 173.285 955.27 173.095 954.934 172.758C954.597 172.421 954.408 171.964 954.408 171.487C954.408 171.01 954.597 170.552 954.934 170.215C955.27 169.878 955.727 169.688 956.203 169.688H967.777L967.717 194.935Z" fill="#1B3C47"/>
<path id="Vector_28" opacity="0.15" d="M937.46 173.285H874.312V148.051H937.46V173.285ZM877.903 169.689H933.869V151.647H877.903V169.689Z" fill="#1B3C47"/>
</g>
<path id="Vector_29" d="M216.636 542.513C211.786 542.513 207.045 541.073 203.012 538.374C198.979 535.675 195.835 531.838 193.979 527.35C192.123 522.862 191.637 517.923 192.584 513.158C193.53 508.393 195.866 504.016 199.295 500.581C202.725 497.146 207.095 494.806 211.852 493.859C216.609 492.911 221.54 493.397 226.021 495.256C230.503 497.116 234.333 500.264 237.028 504.303C239.722 508.343 241.161 513.092 241.161 517.95C241.154 524.463 238.568 530.707 233.971 535.312C229.373 539.917 223.139 542.507 216.636 542.513ZM216.636 505.351C214.153 505.351 211.726 506.088 209.661 507.47C207.596 508.852 205.987 510.816 205.037 513.114C204.087 515.412 203.838 517.94 204.322 520.379C204.807 522.819 206.003 525.059 207.759 526.818C209.514 528.577 211.752 529.775 214.187 530.26C216.623 530.745 219.147 530.496 221.441 529.544C223.735 528.592 225.696 526.981 227.076 524.913C228.455 522.845 229.192 520.413 229.192 517.926C229.185 514.595 227.86 511.403 225.506 509.049C223.152 506.696 219.962 505.375 216.636 505.375V505.351Z" fill="#3F3E3E"/>
<path id="Vector_30" d="M216.72 545.451C211.512 545.451 206.421 543.904 202.091 541.006C197.761 538.108 194.386 533.989 192.393 529.17C190.4 524.351 189.878 519.048 190.894 513.932C191.91 508.816 194.418 504.117 198.101 500.429C201.783 496.74 206.475 494.229 211.583 493.211C216.691 492.193 221.985 492.716 226.797 494.712C231.608 496.708 235.72 500.088 238.614 504.425C241.507 508.762 243.051 513.861 243.051 519.078C243.051 526.072 240.277 532.78 235.339 537.726C230.401 542.672 223.703 545.451 216.72 545.451ZM216.72 496.3C212.222 496.3 207.826 497.636 204.086 500.139C200.346 502.642 197.431 506.199 195.71 510.361C193.989 514.523 193.539 519.103 194.416 523.521C195.294 527.94 197.459 531.998 200.64 535.183C203.82 538.369 207.872 540.538 212.283 541.417C216.695 542.296 221.267 541.845 225.422 540.121C229.578 538.397 233.129 535.478 235.628 531.732C238.127 527.986 239.461 523.582 239.461 519.078C239.461 513.037 237.065 507.243 232.8 502.972C228.535 498.7 222.751 496.3 216.72 496.3ZM216.72 533.463C213.879 533.463 211.102 532.619 208.74 531.039C206.379 529.458 204.538 527.211 203.451 524.583C202.364 521.954 202.079 519.062 202.633 516.271C203.187 513.481 204.555 510.917 206.564 508.905C208.573 506.894 211.132 505.524 213.918 504.968C216.704 504.413 219.592 504.698 222.216 505.787C224.841 506.876 227.084 508.72 228.662 511.085C230.24 513.451 231.083 516.232 231.083 519.078C231.083 522.893 229.569 526.552 226.876 529.25C224.182 531.948 220.529 533.463 216.72 533.463ZM216.72 508.288C214.589 508.288 212.507 508.921 210.735 510.107C208.964 511.292 207.583 512.977 206.768 514.949C205.953 516.92 205.739 519.09 206.155 521.182C206.571 523.275 207.597 525.198 209.103 526.707C210.609 528.216 212.529 529.243 214.618 529.659C216.708 530.076 218.874 529.862 220.842 529.045C222.81 528.229 224.493 526.846 225.676 525.072C226.86 523.297 227.492 521.212 227.492 519.078C227.492 516.216 226.357 513.472 224.337 511.449C222.317 509.425 219.577 508.288 216.72 508.288Z" fill="#1E1E30"/>
<path id="Vector_31" d="M209.419 465.887H142.394C138.798 465.887 135.883 468.806 135.883 472.408V561.035C135.883 564.637 138.798 567.556 142.394 567.556H209.419C213.015 567.556 215.93 564.637 215.93 561.035V472.408C215.93 468.806 213.015 465.887 209.419 465.887Z" fill="#3F3E3E"/>
<path id="Vector_32" d="M216.636 486.184V564.752C216.636 566.482 215.95 568.141 214.729 569.364C213.508 570.587 211.852 571.274 210.125 571.274H143.1C142.244 571.275 141.397 571.108 140.606 570.781C139.815 570.453 139.097 569.973 138.492 569.367C137.887 568.761 137.408 568.042 137.081 567.25C136.754 566.458 136.587 565.609 136.589 564.752V550.247C142.207 553.312 148.543 554.81 154.937 554.587C167.109 554.143 178.563 547.945 187.253 539.422C195.942 530.899 202.214 520.169 207.504 509.188C211.14 501.769 214.193 494.078 216.636 486.184Z" fill="#302F2F"/>
<path id="Vector_33" d="M904.737 567.809C904.737 560.286 907.72 553.072 913.031 547.753C918.342 542.434 925.545 539.445 933.055 539.445C940.566 539.445 947.769 542.434 953.079 547.753C958.39 553.072 961.373 560.286 961.373 567.809" fill="#CACAD8"/>
<path id="Vector_34" d="M961.397 567.772H914.599C927.644 562.577 939.373 554.544 948.938 544.252C952.779 546.851 955.923 550.355 958.096 554.456C960.268 558.557 961.402 563.13 961.397 567.772Z" fill="#A1A1C4"/>
<g id="Group_2" opacity="0.15">
<path id="Vector_35" opacity="0.15" d="M935.964 423.174H921.003V397.892H965.455C965.932 397.892 966.388 398.081 966.725 398.418C967.062 398.755 967.251 399.213 967.251 399.69C967.251 400.167 967.062 400.624 966.725 400.961C966.388 401.299 965.932 401.488 965.455 401.488H924.63V419.578H935.964C936.44 419.578 936.897 419.767 937.234 420.104C937.57 420.442 937.76 420.899 937.76 421.376C937.76 421.853 937.57 422.31 937.234 422.647C936.897 422.985 936.44 423.174 935.964 423.174Z" fill="#1B3C47"/>
<path id="Vector_36" opacity="0.15" d="M947.73 423.175H941.255C940.778 423.175 940.322 422.985 939.985 422.648C939.648 422.311 939.459 421.853 939.459 421.376C939.459 420.899 939.648 420.442 939.985 420.105C940.322 419.768 940.778 419.578 941.255 419.578H947.73C948.206 419.578 948.663 419.768 948.999 420.105C949.336 420.442 949.525 420.899 949.525 421.376C949.525 421.853 949.336 422.311 948.999 422.648C948.663 422.985 948.206 423.175 947.73 423.175Z" fill="#1B3C47"/>
<path id="Vector_37" opacity="0.15" d="M952.721 423.175H952.589C952.113 423.175 951.656 422.985 951.32 422.648C950.983 422.311 950.794 421.853 950.794 421.376C950.794 420.899 950.983 420.442 951.32 420.105C951.656 419.768 952.113 419.578 952.589 419.578H952.721C953.197 419.578 953.654 419.768 953.99 420.105C954.327 420.442 954.516 420.899 954.516 421.376C954.516 421.853 954.327 422.311 953.99 422.648C953.654 422.985 953.197 423.175 952.721 423.175Z" fill="#1B3C47"/>
<path id="Vector_38" opacity="0.15" d="M984.187 423.174H957.76C957.284 423.174 956.827 422.985 956.49 422.647C956.153 422.31 955.964 421.853 955.964 421.376C955.964 420.899 956.153 420.442 956.49 420.104C956.827 419.767 957.284 419.578 957.76 419.578H980.596V401.488H972.673C972.197 401.488 971.74 401.299 971.403 400.961C971.067 400.624 970.877 400.167 970.877 399.69C970.877 399.213 971.067 398.755 971.403 398.418C971.74 398.081 972.197 397.892 972.673 397.892H984.247L984.187 423.174Z" fill="#1B3C47"/>
<path id="Vector_39" opacity="0.15" d="M953.917 401.488H890.782V376.253H953.917V401.488ZM894.36 397.891H950.327V379.849H894.372L894.36 397.891Z" fill="#1B3C47"/>
</g>
<g id="Group_3" opacity="0.15">
<path id="Vector_40" opacity="0.15" d="M95.7508 436.097H95.4037C94.9276 436.097 94.4709 435.908 94.1342 435.571C93.7975 435.233 93.6084 434.776 93.6084 434.299C93.6084 433.822 93.7975 433.365 94.1342 433.028C94.4709 432.69 94.9276 432.501 95.4037 432.501H95.7508C96.227 432.501 96.6836 432.69 97.0203 433.028C97.357 433.365 97.5462 433.822 97.5462 434.299C97.5462 434.776 97.357 435.233 97.0203 435.571C96.6836 435.908 96.227 436.097 95.7508 436.097Z" fill="#1B3C47"/>
<path id="Vector_41" opacity="0.15" d="M108.785 436.097H101.604C101.128 436.097 100.671 435.908 100.334 435.57C99.9976 435.233 99.8084 434.776 99.8084 434.299C99.8084 433.822 99.9976 433.365 100.334 433.027C100.671 432.69 101.128 432.501 101.604 432.501H105.194V414.447H49.2281V432.501H81.7714C82.2475 432.501 82.7042 432.69 83.0409 433.027C83.3776 433.365 83.5667 433.822 83.5667 434.299C83.5667 434.776 83.3776 435.233 83.0409 435.57C82.7042 435.908 82.2475 436.097 81.7714 436.097H45.6375V410.851H108.785V436.097Z" fill="#1B3C47"/>
<path id="Vector_42" opacity="0.15" d="M90.5083 436.097H87.3725C86.8963 436.097 86.4397 435.908 86.103 435.571C85.7663 435.233 85.5771 434.776 85.5771 434.299C85.5771 433.822 85.7663 433.365 86.103 433.028C86.4397 432.69 86.8963 432.501 87.3725 432.501H90.5681C91.0443 432.501 91.5009 432.69 91.8376 433.028C92.1743 433.365 92.3635 433.822 92.3635 434.299C92.3635 434.776 92.1743 435.233 91.8376 435.571C91.5009 435.908 91.0443 436.097 90.5681 436.097H90.5083Z" fill="#1B3C47"/>
<path id="Vector_43" opacity="0.15" d="M60.5985 479.385H45.6375V454.139H90.0897C90.5659 454.139 91.0225 454.328 91.3592 454.665C91.6959 455.003 91.8851 455.46 91.8851 455.937C91.8851 456.414 91.6959 456.871 91.3592 457.208C91.0225 457.546 90.5659 457.735 90.0897 457.735H49.2281V475.789H60.5985C61.0747 475.789 61.5313 475.978 61.868 476.316C62.2047 476.653 62.3938 477.11 62.3938 477.587C62.3938 478.064 62.2047 478.521 61.868 478.859C61.5313 479.196 61.0747 479.385 60.5985 479.385Z" fill="#1B3C47"/>
<path id="Vector_44" opacity="0.15" d="M72.3276 479.385H65.8285C65.3524 479.385 64.8957 479.196 64.559 478.859C64.2224 478.522 64.0332 478.064 64.0332 477.587C64.0332 477.11 64.2224 476.653 64.559 476.316C64.8957 475.979 65.3524 475.789 65.8285 475.789H72.3037C72.7798 475.789 73.2365 475.979 73.5732 476.316C73.9099 476.653 74.099 477.11 74.099 477.587C74.099 478.064 73.9099 478.522 73.5732 478.859C73.2365 479.196 72.7798 479.385 72.3037 479.385H72.3276Z" fill="#1B3C47"/>
<path id="Vector_45" opacity="0.15" d="M77.2706 479.385H77.139C76.6628 479.385 76.2062 479.196 75.8695 478.859C75.5328 478.522 75.3436 478.064 75.3436 477.587C75.3436 477.11 75.5328 476.653 75.8695 476.316C76.2062 475.979 76.6628 475.789 77.139 475.789H77.2706C77.7468 475.789 78.2034 475.979 78.5401 476.316C78.8768 476.653 79.066 477.11 79.066 477.587C79.066 478.064 78.8768 478.522 78.5401 478.859C78.2034 479.196 77.7468 479.385 77.2706 479.385Z" fill="#1B3C47"/>
<path id="Vector_46" opacity="0.15" d="M108.785 479.385H82.3576C81.8814 479.385 81.4248 479.196 81.0881 478.859C80.7514 478.521 80.5623 478.064 80.5623 477.587C80.5623 477.11 80.7514 476.653 81.0881 476.316C81.4248 475.978 81.8814 475.789 82.3576 475.789H105.194V457.735H97.2708C96.7946 457.735 96.338 457.546 96.0013 457.208C95.6646 456.871 95.4754 456.414 95.4754 455.937C95.4754 455.46 95.6646 455.003 96.0013 454.665C96.338 454.328 96.7946 454.139 97.2708 454.139H108.845L108.785 479.385Z" fill="#1B3C47"/>
<path id="Vector_47" opacity="0.15" d="M78.5274 457.736H15.3798V432.501H78.5274V457.736ZM18.9704 454.139H74.9367V436.097H18.9704V454.139Z" fill="#1B3C47"/>
</g>
<g id="Group_4" opacity="0.15">
<path id="Vector_48" opacity="0.15" d="M171.705 207.139H171.358C170.882 207.139 170.425 206.95 170.088 206.613C169.752 206.275 169.563 205.818 169.563 205.341C169.563 204.864 169.752 204.407 170.088 204.07C170.425 203.732 170.882 203.543 171.358 203.543H171.705C172.181 203.543 172.638 203.732 172.975 204.07C173.311 204.407 173.5 204.864 173.5 205.341C173.5 205.818 173.311 206.275 172.975 206.613C172.638 206.95 172.181 207.139 171.705 207.139Z" fill="#1B3C47"/>
<path id="Vector_49" opacity="0.15" d="M184.787 207.139H177.606C177.13 207.139 176.673 206.95 176.336 206.612C176 206.275 175.811 205.818 175.811 205.341C175.811 204.864 176 204.407 176.336 204.069C176.673 203.732 177.13 203.543 177.606 203.543H181.197V185.489H125.23V203.543H157.774C158.25 203.543 158.706 203.732 159.043 204.069C159.38 204.407 159.569 204.864 159.569 205.341C159.569 205.818 159.38 206.275 159.043 206.612C158.706 206.95 158.25 207.139 157.774 207.139H121.64V181.893H184.787V207.139Z" fill="#1B3C47"/>
<path id="Vector_50" opacity="0.15" d="M166.51 207.139H163.314C162.838 207.139 162.382 206.95 162.045 206.613C161.708 206.275 161.519 205.818 161.519 205.341C161.519 204.864 161.708 204.407 162.045 204.07C162.382 203.732 162.838 203.543 163.314 203.543H166.51C166.986 203.543 167.443 203.732 167.78 204.07C168.116 204.407 168.305 204.864 168.305 205.341C168.305 205.818 168.116 206.275 167.78 206.613C167.443 206.95 166.986 207.139 166.51 207.139Z" fill="#1B3C47"/>
<path id="Vector_51" opacity="0.15" d="M136.601 250.427H121.64V225.181H166.092C166.568 225.181 167.025 225.37 167.361 225.707C167.698 226.045 167.887 226.502 167.887 226.979C167.887 227.456 167.698 227.913 167.361 228.25C167.025 228.588 166.568 228.777 166.092 228.777H125.23V246.831H136.601C137.077 246.831 137.534 247.02 137.87 247.358C138.207 247.695 138.396 248.152 138.396 248.629C138.396 249.106 138.207 249.563 137.87 249.901C137.534 250.238 137.077 250.427 136.601 250.427Z" fill="#1B3C47"/>
<path id="Vector_52" opacity="0.15" d="M148.33 250.427H141.855C141.379 250.427 140.922 250.238 140.585 249.901C140.249 249.564 140.059 249.106 140.059 248.629C140.059 248.152 140.249 247.695 140.585 247.358C140.922 247.021 141.379 246.831 141.855 246.831H148.33C148.806 246.831 149.263 247.021 149.599 247.358C149.936 247.695 150.125 248.152 150.125 248.629C150.125 249.106 149.936 249.564 149.599 249.901C149.263 250.238 148.806 250.427 148.33 250.427Z" fill="#1B3C47"/>
<path id="Vector_53" opacity="0.15" d="M153.273 250.427H153.201C152.725 250.427 152.269 250.238 151.932 249.901C151.595 249.564 151.406 249.106 151.406 248.629C151.406 248.152 151.595 247.695 151.932 247.358C152.269 247.021 152.725 246.831 153.201 246.831H153.333C153.809 246.831 154.266 247.021 154.603 247.358C154.939 247.695 155.128 248.152 155.128 248.629C155.128 249.106 154.939 249.564 154.603 249.901C154.266 250.238 153.809 250.427 153.333 250.427H153.273Z" fill="#1B3C47"/>
<path id="Vector_54" opacity="0.15" d="M184.787 250.427H158.36C157.884 250.427 157.427 250.238 157.09 249.901C156.754 249.563 156.564 249.106 156.564 248.629C156.564 248.152 156.754 247.695 157.09 247.358C157.427 247.02 157.884 246.831 158.36 246.831H181.196V228.777H173.273C172.797 228.777 172.34 228.588 172.003 228.25C171.667 227.913 171.478 227.456 171.478 226.979C171.478 226.502 171.667 226.045 172.003 225.707C172.34 225.37 172.797 225.181 173.273 225.181H184.847L184.787 250.427Z" fill="#1B3C47"/>
<path id="Vector_55" opacity="0.15" d="M154.53 228.778H91.382V203.543H154.53V228.778ZM94.9726 225.181H150.939V207.139H94.9726V225.181Z" fill="#1B3C47"/>
</g>
<g id="Group_5" opacity="0.15">
<path id="Vector_56" opacity="0.15" d="M597.593 25.2468H597.246C596.769 25.2468 596.313 25.0573 595.976 24.7201C595.639 24.3829 595.45 23.9255 595.45 23.4486C595.45 22.9717 595.639 22.5143 595.976 22.1771C596.313 21.8398 596.769 21.6504 597.246 21.6504H597.593C598.069 21.6504 598.526 21.8398 598.862 22.1771C599.199 22.5143 599.388 22.9717 599.388 23.4486C599.388 23.9255 599.199 24.3829 598.862 24.7201C598.526 25.0573 598.069 25.2468 597.593 25.2468Z" fill="#1B3C47"/>
<path id="Vector_57" opacity="0.15" d="M610.675 25.2466H603.493C603.017 25.2466 602.56 25.0571 602.224 24.7199C601.887 24.3827 601.698 23.9253 601.698 23.4484C601.698 22.9715 601.887 22.5141 602.224 22.1769C602.56 21.8397 603.017 21.6502 603.493 21.6502H607.084V3.59638H551.118V21.6502H583.661C584.137 21.6502 584.594 21.8397 584.93 22.1769C585.267 22.5141 585.456 22.9715 585.456 23.4484C585.456 23.9253 585.267 24.3827 584.93 24.7199C584.594 25.0571 584.137 25.2466 583.661 25.2466H547.527V0H610.675V25.2466Z" fill="#1B3C47"/>
<path id="Vector_58" opacity="0.15" d="M592.458 25.2468H589.262C588.786 25.2468 588.329 25.0573 587.993 24.7201C587.656 24.3829 587.467 23.9255 587.467 23.4486C587.467 22.9717 587.656 22.5143 587.993 22.1771C588.329 21.8398 588.786 21.6504 589.262 21.6504H592.458C592.934 21.6504 593.391 21.8398 593.727 22.1771C594.064 22.5143 594.253 22.9717 594.253 23.4486C594.253 23.9255 594.064 24.3829 593.727 24.7201C593.391 25.0573 592.934 25.2468 592.458 25.2468Z" fill="#1B3C47"/>
<path id="Vector_59" opacity="0.15" d="M562.536 68.5347H547.575V43.2881H591.979C592.455 43.2881 592.912 43.4775 593.249 43.8148C593.585 44.152 593.775 44.6094 593.775 45.0863C593.775 45.5632 593.585 46.0206 593.249 46.3578C592.912 46.695 592.455 46.8845 591.979 46.8845H551.117V64.9383H562.536C563.012 64.9383 563.469 65.1277 563.805 65.465C564.142 65.8022 564.331 66.2596 564.331 66.7365C564.331 67.2134 564.142 67.6708 563.805 68.008C563.469 68.3452 563.012 68.5347 562.536 68.5347Z" fill="#1B3C47"/>
<path id="Vector_60" opacity="0.15" d="M574.218 68.5349H567.742C567.266 68.5349 566.81 68.3454 566.473 68.0082C566.136 67.671 565.947 67.2136 565.947 66.7367C565.947 66.2598 566.136 65.8024 566.473 65.4652C566.81 65.1279 567.266 64.9385 567.742 64.9385H574.218C574.694 64.9385 575.15 65.1279 575.487 65.4652C575.824 65.8024 576.013 66.2598 576.013 66.7367C576.013 67.2136 575.824 67.671 575.487 68.0082C575.15 68.3454 574.694 68.5349 574.218 68.5349Z" fill="#1B3C47"/>
<path id="Vector_61" opacity="0.15" d="M579.161 68.5349H579.029C578.553 68.5349 578.096 68.3454 577.759 68.0082C577.423 67.671 577.234 67.2136 577.234 66.7367C577.234 66.2598 577.423 65.8024 577.759 65.4652C578.096 65.1279 578.553 64.9385 579.029 64.9385H579.161C579.637 64.9385 580.093 65.1279 580.43 65.4652C580.767 65.8024 580.956 66.2598 580.956 66.7367C580.956 67.2136 580.767 67.671 580.43 68.0082C580.093 68.3454 579.637 68.5349 579.161 68.5349Z" fill="#1B3C47"/>
<path id="Vector_62" opacity="0.15" d="M610.675 68.5347H584.247C583.771 68.5347 583.315 68.3452 582.978 68.008C582.641 67.6708 582.452 67.2134 582.452 66.7365C582.452 66.2596 582.641 65.8022 582.978 65.465C583.315 65.1277 583.771 64.9383 584.247 64.9383H607.084V46.8845H599.161C598.684 46.8845 598.228 46.695 597.891 46.3578C597.554 46.0206 597.365 45.5632 597.365 45.0863C597.365 44.6094 597.554 44.152 597.891 43.8148C598.228 43.4775 598.684 43.2881 599.161 43.2881H610.734L610.675 68.5347Z" fill="#1B3C47"/>
<path id="Vector_63" opacity="0.15" d="M580.417 46.8846H517.27V21.71H580.417V46.8846ZM520.86 43.2882H576.827V25.3063H520.86V43.2882Z" fill="#1B3C47"/>
</g>
<path id="Vector_64" d="M635.725 581.008H468.437C466.625 581.008 464.841 580.564 463.241 579.714C461.64 578.864 460.272 577.634 459.257 576.131C458.241 574.629 457.608 572.9 457.414 571.096C457.22 569.292 457.471 567.468 458.144 565.783L489.155 487.861L552.087 470.551L615.019 487.909L646.019 565.831C646.682 567.513 646.924 569.332 646.725 571.13C646.526 572.927 645.892 574.649 644.877 576.145C643.863 577.641 642.499 578.866 640.904 579.713C639.309 580.561 637.531 581.005 635.725 581.008Z" fill="#CACAD8"/>
<path id="Vector_65" d="M627.742 520.228H478.203L479.651 510.313H626.294L627.742 520.228Z" fill="#A1A1C4"/>
<path id="Vector_66" d="M492.302 526.965C495.198 526.965 497.545 524.615 497.545 521.715C497.545 518.815 495.198 516.464 492.302 516.464C489.407 516.464 487.06 518.815 487.06 521.715C487.06 524.615 489.407 526.965 492.302 526.965Z" fill="#A1A1C4"/>
<path id="Vector_67" d="M508.161 531.414C509.642 531.414 510.842 530.211 510.842 528.728C510.842 527.245 509.642 526.043 508.161 526.043C506.68 526.043 505.48 527.245 505.48 528.728C505.48 530.211 506.68 531.414 508.161 531.414Z" fill="#A1A1C4"/>
<path id="Vector_68" d="M496.851 542.141C498.781 542.141 500.346 540.574 500.346 538.641C500.346 536.708 498.781 535.141 496.851 535.141C494.92 535.141 493.356 536.708 493.356 538.641C493.356 540.574 494.92 542.141 496.851 542.141Z" fill="#A1A1C4"/>
<path id="Vector_69" d="M635.725 583.404H468.437C466.235 583.402 464.068 582.861 462.123 581.827C460.179 580.792 458.516 579.297 457.282 577.472C456.047 575.646 455.277 573.545 455.039 571.353C454.801 569.161 455.103 566.944 455.918 564.895L486.929 486.974C487.066 486.629 487.281 486.32 487.557 486.073C487.833 485.825 488.163 485.645 488.521 485.547L551.453 468.236C551.867 468.117 552.307 468.117 552.722 468.236L615.654 485.511C616.011 485.609 616.341 485.789 616.617 486.037C616.894 486.284 617.109 486.593 617.246 486.938L648.245 564.859C649.057 566.907 649.357 569.123 649.118 571.314C648.879 573.504 648.108 575.603 646.874 577.427C645.639 579.251 643.978 580.745 642.035 581.778C640.092 582.812 637.926 583.354 635.725 583.356V583.404ZM490.902 489.899L460.334 566.729C459.796 568.052 459.591 569.488 459.737 570.909C459.884 572.33 460.378 573.693 461.175 574.878C461.973 576.063 463.049 577.033 464.309 577.702C465.569 578.372 466.975 578.72 468.401 578.717H635.725C637.152 578.72 638.557 578.372 639.817 577.702C641.078 577.033 642.154 576.063 642.951 574.878C643.748 573.693 644.242 572.33 644.389 570.909C644.536 569.488 644.331 568.052 643.792 566.729L613.236 489.899L552.087 473.115L490.902 489.899Z" fill="#1E1E30"/>
<path id="Vector_70" d="M284.093 98.9961H811.668C817.096 98.9961 822.301 101.156 826.14 105C829.978 108.845 832.134 114.059 832.134 119.495V491.697C832.134 494.254 831.631 496.787 830.653 499.15C829.676 501.513 828.243 503.659 826.437 505.467C824.631 507.275 822.487 508.709 820.127 509.687C817.767 510.664 815.238 511.167 812.685 511.165H283.075C277.92 511.165 272.976 509.114 269.331 505.463C265.686 501.812 263.638 496.86 263.638 491.697V119.495C263.638 114.061 265.793 108.848 269.628 105.004C273.464 101.16 278.667 98.9993 284.093 98.9961Z" fill="#546B76"/>
<path id="Vector_71" d="M831.488 119.483V132.119C831.488 126.684 829.333 121.472 825.498 117.628C821.662 113.784 816.459 111.623 811.033 111.619H283.458C278.031 111.623 272.827 113.783 268.99 117.627C265.152 121.471 262.995 126.683 262.992 132.119V119.483C262.995 114.049 265.153 108.838 268.99 104.996C272.828 101.154 278.032 98.9961 283.458 98.9961H811.033C813.719 98.9961 816.379 99.526 818.861 100.556C821.343 101.585 823.598 103.094 825.497 104.997C827.396 106.899 828.903 109.158 829.931 111.643C830.959 114.129 831.488 116.793 831.488 119.483Z" fill="#7997A3"/>
<path id="Vector_72" d="M832.134 444.032V491.696C832.134 494.254 831.631 496.786 830.653 499.149C829.676 501.512 828.243 503.659 826.437 505.467C824.631 507.275 822.486 508.708 820.127 509.686C817.767 510.664 815.238 511.166 812.685 511.165H283.075C277.92 511.165 272.976 509.114 269.331 505.462C265.686 501.811 263.638 496.86 263.638 491.696V444.032H832.134Z" fill="#CACAD8"/>
<path id="Vector_73" d="M832.373 443.026H263.877V453.528H832.373V443.026Z" fill="#A1A1C4"/>
<path id="Vector_74" d="M832.373 433.532V444.034H263.853C263.853 444.034 259.305 414.639 264.81 415.634C361.686 433.136 832.373 433.532 832.373 433.532Z" fill="#3C5159"/>
<path id="Vector_75" d="M803.349 131.663H292.89V416.017H803.349V131.663Z" fill="#B4E4F9"/>
<path id="Vector_76" d="M263.877 320.138C263.242 320.138 262.633 319.885 262.184 319.436C261.735 318.986 261.483 318.376 261.483 317.74V176.223C261.483 175.587 261.735 174.977 262.184 174.527C262.633 174.078 263.242 173.825 263.877 173.825C264.512 173.825 265.121 174.078 265.57 174.527C266.018 174.977 266.271 175.587 266.271 176.223V317.74C266.271 318.376 266.018 318.986 265.57 319.436C265.121 319.885 264.512 320.138 263.877 320.138Z" fill="#1E1E30"/>
<path id="Vector_77" d="M832.373 272.031C831.738 272.031 831.129 271.778 830.681 271.329C830.232 270.879 829.979 270.269 829.979 269.633V248.702C829.979 248.066 830.232 247.457 830.681 247.007C831.129 246.557 831.738 246.305 832.373 246.305C833.008 246.305 833.617 246.557 834.066 247.007C834.515 247.457 834.767 248.066 834.767 248.702V269.633C834.767 270.269 834.515 270.879 834.066 271.329C833.617 271.778 833.008 272.031 832.373 272.031Z" fill="#1E1E30"/>
<path id="Vector_78" d="M832.373 236.582C831.738 236.582 831.129 236.329 830.681 235.88C830.232 235.43 829.979 234.82 829.979 234.184V194.756C829.979 194.12 830.232 193.51 830.681 193.061C831.129 192.611 831.738 192.358 832.373 192.358C833.008 192.358 833.617 192.611 834.066 193.061C834.515 193.51 834.767 194.12 834.767 194.756V234.184C834.767 234.82 834.515 235.43 834.066 235.88C833.617 236.329 833.008 236.582 832.373 236.582Z" fill="#1E1E30"/>
<path id="Vector_79" d="M832.373 181.341C831.738 181.341 831.129 181.089 830.68 180.639C830.232 180.19 829.979 179.58 829.979 178.944V119.496C829.973 114.697 828.067 110.096 824.679 106.703C821.291 103.309 816.698 101.4 811.906 101.394H284.332C279.542 101.403 274.952 103.314 271.567 106.707C268.182 110.1 266.277 114.699 266.271 119.496V160.638C266.271 161.274 266.018 161.884 265.57 162.334C265.121 162.783 264.512 163.036 263.877 163.036C263.242 163.036 262.633 162.783 262.184 162.334C261.735 161.884 261.483 161.274 261.483 160.638V119.496C261.489 113.427 263.898 107.609 268.182 103.316C272.465 99.0239 278.273 96.6082 284.332 96.5986H811.906C817.967 96.605 823.778 99.0194 828.064 103.312C832.35 107.605 834.76 113.425 834.767 119.496V178.944C834.767 179.58 834.515 180.19 834.066 180.639C833.617 181.089 833.008 181.341 832.373 181.341Z" fill="#1E1E30"/>
<path id="Vector_80" d="M832.373 446.43H263.853C263.218 446.43 262.609 446.177 262.16 445.728C261.712 445.278 261.459 444.668 261.459 444.032C261.459 443.396 261.712 442.787 262.16 442.337C262.609 441.887 263.218 441.635 263.853 441.635H832.373C833.008 441.635 833.617 441.887 834.066 442.337C834.515 442.787 834.767 443.396 834.767 444.032C834.767 444.668 834.515 445.278 834.066 445.728C833.617 446.177 833.008 446.43 832.373 446.43Z" fill="#1E1E30"/>
<path id="Vector_81" d="M803.349 404.354H292.89V416.03H803.349V404.354Z" fill="#70BEE0"/>
<path id="Vector_82" opacity="0.59" d="M511.525 416.017H499.867L571.68 131.663H583.338L511.525 416.017Z" fill="white"/>
<path id="Vector_83" opacity="0.3" d="M485.887 416.017H474.229L546.042 131.663H557.7L485.887 416.017Z" fill="white"/>
<path id="Vector_84" d="M563.649 416.017H528.054L599.867 131.663H635.462L563.649 416.017Z" fill="white"/>
<path id="Vector_85" d="M292.89 252.658C292.255 252.658 291.646 252.406 291.197 251.956C290.748 251.507 290.496 250.897 290.496 250.261V222.689C290.496 222.053 290.748 221.443 291.197 220.993C291.646 220.544 292.255 220.291 292.89 220.291C293.525 220.291 294.134 220.544 294.582 220.993C295.031 221.443 295.284 222.053 295.284 222.689V250.261C295.284 250.897 295.031 251.507 294.582 251.956C294.134 252.406 293.525 252.658 292.89 252.658Z" fill="#1E1E30"/>
<path id="Vector_86" d="M757.042 434.023C758.688 434.023 760.022 432.686 760.022 431.038C760.022 429.389 758.688 428.053 757.042 428.053C755.396 428.053 754.062 429.389 754.062 431.038C754.062 432.686 755.396 434.023 757.042 434.023Z" fill="#3C5159"/>
<path id="Vector_87" d="M762.643 429.827C763.132 429.827 763.529 429.43 763.529 428.94C763.529 428.45 763.132 428.053 762.643 428.053C762.154 428.053 761.757 428.45 761.757 428.94C761.757 429.43 762.154 429.827 762.643 429.827Z" fill="#3C5159"/>
<path id="Vector_88" d="M758.299 426.195C758.788 426.195 759.184 425.798 759.184 425.308C759.184 424.818 758.788 424.421 758.299 424.421C757.809 424.421 757.413 424.818 757.413 425.308C757.413 425.798 757.809 426.195 758.299 426.195Z" fill="#3C5159"/>
<path id="Vector_89" d="M749.753 427.249C750.883 427.249 751.799 426.331 751.799 425.199C751.799 424.067 750.883 423.149 749.753 423.149C748.622 423.149 747.706 424.067 747.706 425.199C747.706 426.331 748.622 427.249 749.753 427.249Z" fill="#3C5159"/>
<path id="Vector_90" d="M746.844 433.075C747.842 433.075 748.651 432.265 748.651 431.265C748.651 430.266 747.842 429.455 746.844 429.455C745.846 429.455 745.037 430.266 745.037 431.265C745.037 432.265 745.846 433.075 746.844 433.075Z" fill="#3C5159"/>
<path id="Vector_91" d="M741.709 428.042C742.218 428.042 742.631 427.628 742.631 427.118C742.631 426.609 742.218 426.195 741.709 426.195C741.2 426.195 740.788 426.609 740.788 427.118C740.788 427.628 741.2 428.042 741.709 428.042Z" fill="#3C5159"/>
<path id="Vector_92" d="M743.756 424.146C744.378 424.146 744.882 423.642 744.882 423.019C744.882 422.397 744.378 421.893 743.756 421.893C743.135 421.893 742.631 422.397 742.631 423.019C742.631 423.642 743.135 424.146 743.756 424.146Z" fill="#3C5159"/>
<path id="Vector_93" d="M734.959 431.926C736.03 431.926 736.898 431.057 736.898 429.984C736.898 428.911 736.03 428.042 734.959 428.042C733.888 428.042 733.02 428.911 733.02 429.984C733.02 431.057 733.888 431.926 734.959 431.926Z" fill="#3C5159"/>
<path id="Vector_94" d="M769.513 428.617C770.181 428.617 770.722 428.075 770.722 427.406C770.722 426.737 770.181 426.195 769.513 426.195C768.846 426.195 768.304 426.737 768.304 427.406C768.304 428.075 768.846 428.617 769.513 428.617Z" fill="#3C5159"/>
<path id="Vector_95" d="M764.965 424.409C765.349 424.409 765.659 424.098 765.659 423.714C765.659 423.33 765.349 423.019 764.965 423.019C764.582 423.019 764.271 423.33 764.271 423.714C764.271 424.098 764.582 424.409 764.965 424.409Z" fill="#3C5159"/>
<path id="Vector_96" d="M770.303 422.42C770.971 422.42 771.512 421.877 771.512 421.209C771.512 420.54 770.971 419.998 770.303 419.998C769.635 419.998 769.094 420.54 769.094 421.209C769.094 421.877 769.635 422.42 770.303 422.42Z" fill="#3C5159"/>
<path id="Vector_97" d="M764.75 427.251C765.213 427.251 765.588 426.875 765.588 426.411C765.588 425.948 765.213 425.572 764.75 425.572C764.287 425.572 763.912 425.948 763.912 426.411C763.912 426.875 764.287 427.251 764.75 427.251Z" fill="#3C5159"/>
<path id="Vector_98" d="M760.608 422.155C761.13 422.155 761.554 421.731 761.554 421.208C761.554 420.685 761.13 420.261 760.608 420.261C760.086 420.261 759.663 420.685 759.663 421.208C759.663 421.731 760.086 422.155 760.608 422.155Z" fill="#3C5159"/>
<path id="Vector_99" d="M754.648 421.208C755.414 421.208 756.036 420.585 756.036 419.817C756.036 419.049 755.414 418.427 754.648 418.427C753.881 418.427 753.259 419.049 753.259 419.817C753.259 420.585 753.881 421.208 754.648 421.208Z" fill="#3C5159"/>
<path id="Vector_100" d="M755.773 423.618C755.938 423.618 756.072 423.484 756.072 423.318C756.072 423.153 755.938 423.019 755.773 423.019C755.608 423.019 755.474 423.153 755.474 423.318C755.474 423.484 755.608 423.618 755.773 423.618Z" fill="#3C5159"/>
<path id="Vector_101" d="M754.492 426.662C754.737 426.662 754.935 426.464 754.935 426.219C754.935 425.974 754.737 425.775 754.492 425.775C754.248 425.775 754.049 425.974 754.049 426.219C754.049 426.464 754.248 426.662 754.492 426.662Z" fill="#3C5159"/>
<path id="Vector_102" d="M769.465 434.334C770.536 434.334 771.404 433.465 771.404 432.392C771.404 431.32 770.536 430.45 769.465 430.45C768.394 430.45 767.526 431.32 767.526 432.392C767.526 433.465 768.394 434.334 769.465 434.334Z" fill="#3C5159"/>
<path id="Vector_103" d="M777.257 431.602C778.083 431.602 778.753 430.931 778.753 430.103C778.753 429.275 778.083 428.604 777.257 428.604C776.431 428.604 775.761 429.275 775.761 430.103C775.761 430.931 776.431 431.602 777.257 431.602Z" fill="#3C5159"/>
<path id="Vector_104" d="M784.881 435.749C786.619 435.749 788.029 434.337 788.029 432.596C788.029 430.855 786.619 429.443 784.881 429.443C783.142 429.443 781.733 430.855 781.733 432.596C781.733 434.337 783.142 435.749 784.881 435.749Z" fill="#3C5159"/>
<path id="Vector_105" d="M794.432 436.192C796.29 436.192 797.795 434.684 797.795 432.824C797.795 430.963 796.29 429.455 794.432 429.455C792.575 429.455 791.069 430.963 791.069 432.824C791.069 434.684 792.575 436.192 794.432 436.192Z" fill="#3C5159"/>
<path id="Vector_106" d="M800.405 432.932C801.218 432.932 801.877 432.272 801.877 431.458C801.877 430.644 801.218 429.983 800.405 429.983C799.592 429.983 798.933 430.644 798.933 431.458C798.933 432.272 799.592 432.932 800.405 432.932Z" fill="#3C5159"/>
<path id="Vector_107" d="M794.959 427.25C795.25 427.25 795.486 427.014 795.486 426.723C795.486 426.431 795.25 426.195 794.959 426.195C794.668 426.195 794.432 426.431 794.432 426.723C794.432 427.014 794.668 427.25 794.959 427.25Z" fill="#3C5159"/>
<path id="Vector_108" d="M787.646 425.296C788.274 425.296 788.783 424.786 788.783 424.157C788.783 423.528 788.274 423.019 787.646 423.019C787.018 423.019 786.509 423.528 786.509 424.157C786.509 424.786 787.018 425.296 787.646 425.296Z" fill="#3C5159"/>
<path id="Vector_109" d="M782.882 423.714C783.517 423.714 784.031 423.198 784.031 422.563C784.031 421.927 783.517 421.412 782.882 421.412C782.248 421.412 781.733 421.927 781.733 422.563C781.733 423.198 782.248 423.714 782.882 423.714Z" fill="#3C5159"/>
<path id="Vector_110" d="M778.825 425.56C779.691 425.56 780.393 424.857 780.393 423.989C780.393 423.122 779.691 422.419 778.825 422.419C777.959 422.419 777.257 423.122 777.257 423.989C777.257 424.857 777.959 425.56 778.825 425.56Z" fill="#3C5159"/>
<path id="Vector_111" d="M774.612 426.458C775.246 426.458 775.761 425.943 775.761 425.307C775.761 424.671 775.246 424.156 774.612 424.156C773.977 424.156 773.463 424.671 773.463 425.307C773.463 425.943 773.977 426.458 774.612 426.458Z" fill="#3C5159"/>
<path id="Vector_112" d="M785.826 428.485C786.203 428.485 786.509 428.179 786.509 427.801C786.509 427.424 786.203 427.118 785.826 427.118C785.45 427.118 785.144 427.424 785.144 427.801C785.144 428.179 785.45 428.485 785.826 428.485Z" fill="#3C5159"/>
<path id="Vector_113" d="M697.556 405.684C700.696 405.684 703.242 403.134 703.242 399.989C703.242 396.844 700.696 394.295 697.556 394.295C694.417 394.295 691.871 396.844 691.871 399.989C691.871 403.134 694.417 405.684 697.556 405.684Z" fill="#70BEE0"/>
<path id="Vector_114" d="M708.233 397.688C709.165 397.688 709.92 396.931 709.92 395.998C709.92 395.064 709.165 394.308 708.233 394.308C707.301 394.308 706.545 395.064 706.545 395.998C706.545 396.931 707.301 397.688 708.233 397.688Z" fill="#70BEE0"/>
<path id="Vector_115" d="M699.962 390.782C700.901 390.782 701.662 390.02 701.662 389.08C701.662 388.14 700.901 387.378 699.962 387.378C699.024 387.378 698.263 388.14 698.263 389.08C698.263 390.02 699.024 390.782 699.962 390.782Z" fill="#70BEE0"/>
<path id="Vector_116" d="M683.696 392.773C685.845 392.773 687.586 391.028 687.586 388.877C687.586 386.725 685.845 384.98 683.696 384.98C681.548 384.98 679.807 386.725 679.807 388.877C679.807 391.028 681.548 392.773 683.696 392.773Z" fill="#70BEE0"/>
<path id="Vector_117" d="M678.155 403.874C680.059 403.874 681.602 402.328 681.602 400.421C681.602 398.514 680.059 396.969 678.155 396.969C676.251 396.969 674.708 398.514 674.708 400.421C674.708 402.328 676.251 403.874 678.155 403.874Z" fill="#70BEE0"/>
<path id="Vector_118" d="M668.388 394.307C669.36 394.307 670.148 393.518 670.148 392.544C670.148 391.571 669.36 390.782 668.388 390.782C667.417 390.782 666.629 391.571 666.629 392.544C666.629 393.518 667.417 394.307 668.388 394.307Z" fill="#70BEE0"/>
<path id="Vector_119" d="M672.302 386.875C673.485 386.875 674.445 385.914 674.445 384.729C674.445 383.544 673.485 382.583 672.302 382.583C671.119 382.583 670.16 383.544 670.16 384.729C670.16 385.914 671.119 386.875 672.302 386.875Z" fill="#70BEE0"/>
<path id="Vector_120" d="M655.546 401.668C657.575 401.668 659.22 400.02 659.22 397.988C659.22 395.955 657.575 394.308 655.546 394.308C653.516 394.308 651.871 395.955 651.871 397.988C651.871 400.02 653.516 401.668 655.546 401.668Z" fill="#70BEE0"/>
<path id="Vector_121" d="M721.314 395.386C722.584 395.386 723.613 394.355 723.613 393.084C723.613 391.813 722.584 390.782 721.314 390.782C720.045 390.782 719.016 391.813 719.016 393.084C719.016 394.355 720.045 395.386 721.314 395.386Z" fill="#70BEE0"/>
<path id="Vector_122" d="M712.661 387.379C713.388 387.379 713.978 386.788 713.978 386.06C713.978 385.332 713.388 384.741 712.661 384.741C711.934 384.741 711.344 385.332 711.344 386.06C711.344 386.788 711.934 387.379 712.661 387.379Z" fill="#70BEE0"/>
<path id="Vector_123" d="M722.81 383.59C724.08 383.59 725.108 382.559 725.108 381.288C725.108 380.017 724.08 378.986 722.81 378.986C721.541 378.986 720.512 380.017 720.512 381.288C720.512 382.559 721.541 383.59 722.81 383.59Z" fill="#70BEE0"/>
<path id="Vector_124" d="M712.23 392.772C713.109 392.772 713.822 392.058 713.822 391.177C713.822 390.297 713.109 389.583 712.23 389.583C711.351 389.583 710.638 390.297 710.638 391.177C710.638 392.058 711.351 392.772 712.23 392.772Z" fill="#70BEE0"/>
<path id="Vector_125" d="M704.354 383.087C705.346 383.087 706.15 382.282 706.15 381.288C706.15 380.295 705.346 379.49 704.354 379.49C703.363 379.49 702.559 380.295 702.559 381.288C702.559 382.282 703.363 383.087 704.354 383.087Z" fill="#70BEE0"/>
<path id="Vector_126" d="M693.032 381.288C694.493 381.288 695.677 380.102 695.677 378.639C695.677 377.175 694.493 375.989 693.032 375.989C691.571 375.989 690.387 377.175 690.387 378.639C690.387 380.102 691.571 381.288 693.032 381.288Z" fill="#70BEE0"/>
<path id="Vector_127" d="M695.151 385.88C695.468 385.88 695.725 385.623 695.725 385.305C695.725 384.987 695.468 384.729 695.151 384.729C694.833 384.729 694.576 384.987 694.576 385.305C694.576 385.623 694.833 385.88 695.151 385.88Z" fill="#70BEE0"/>
<path id="Vector_128" d="M692.733 391.683C693.203 391.683 693.583 391.302 693.583 390.832C693.583 390.362 693.203 389.98 692.733 389.98C692.264 389.98 691.884 390.362 691.884 390.832C691.884 391.302 692.264 391.683 692.733 391.683Z" fill="#70BEE0"/>
<path id="Vector_129" d="M721.219 406.271C723.255 406.271 724.905 404.618 724.905 402.579C724.905 400.54 723.255 398.887 721.219 398.887C719.183 398.887 717.532 400.54 717.532 402.579C717.532 404.618 719.183 406.271 721.219 406.271Z" fill="#70BEE0"/>
<path id="Vector_130" d="M736.036 401.08C737.609 401.08 738.885 399.803 738.885 398.227C738.885 396.651 737.609 395.374 736.036 395.374C734.463 395.374 733.188 396.651 733.188 398.227C733.188 399.803 734.463 401.08 736.036 401.08Z" fill="#70BEE0"/>
<path id="Vector_131" d="M750.555 408.968C753.86 408.968 756.539 406.285 756.539 402.974C756.539 399.664 753.86 396.98 750.555 396.98C747.25 396.98 744.57 399.664 744.57 402.974C744.57 406.285 747.25 408.968 750.555 408.968Z" fill="#70BEE0"/>
<path id="Vector_132" d="M768.735 409.82C772.278 409.82 775.15 406.943 775.15 403.394C775.15 399.846 772.278 396.969 768.735 396.969C765.192 396.969 762.32 399.846 762.32 403.394C762.32 406.943 765.192 409.82 768.735 409.82Z" fill="#70BEE0"/>
<path id="Vector_133" d="M780.082 403.585C781.622 403.585 782.87 402.335 782.87 400.792C782.87 399.25 781.622 397.999 780.082 397.999C778.541 397.999 777.293 399.25 777.293 400.792C777.293 402.335 778.541 403.585 780.082 403.585Z" fill="#70BEE0"/>
<path id="Vector_134" d="M769.741 392.772C770.289 392.772 770.734 392.327 770.734 391.777C770.734 391.228 770.289 390.782 769.741 390.782C769.192 390.782 768.747 391.228 768.747 391.777C768.747 392.327 769.192 392.772 769.741 392.772Z" fill="#70BEE0"/>
<path id="Vector_135" d="M755.821 389.081C757.017 389.081 757.987 388.109 757.987 386.911C757.987 385.713 757.017 384.741 755.821 384.741C754.624 384.741 753.654 385.713 753.654 386.911C753.654 388.109 754.624 389.081 755.821 389.081Z" fill="#70BEE0"/>
<path id="Vector_136" d="M746.749 386.059C747.952 386.059 748.927 385.082 748.927 383.877C748.927 382.672 747.952 381.695 746.749 381.695C745.546 381.695 744.57 382.672 744.57 383.877C744.57 385.082 745.546 386.059 746.749 386.059Z" fill="#70BEE0"/>
<path id="Vector_137" d="M739.029 389.583C740.681 389.583 742.021 388.241 742.021 386.586C742.021 384.931 740.681 383.589 739.029 383.589C737.376 383.589 736.036 384.931 736.036 386.586C736.036 388.241 737.376 389.583 739.029 389.583Z" fill="#70BEE0"/>
<path id="Vector_138" d="M731.009 391.262C732.212 391.262 733.188 390.285 733.188 389.08C733.188 387.875 732.212 386.898 731.009 386.898C729.806 386.898 728.831 387.875 728.831 389.08C728.831 390.285 729.806 391.262 731.009 391.262Z" fill="#70BEE0"/>
<path id="Vector_139" d="M752.35 395.134C753.064 395.134 753.642 394.555 753.642 393.84C753.642 393.125 753.064 392.545 752.35 392.545C751.636 392.545 751.057 393.125 751.057 393.84C751.057 394.555 751.636 395.134 752.35 395.134Z" fill="#70BEE0"/>
<path id="Vector_140" d="M349.993 465.719C351.473 465.719 352.674 464.517 352.674 463.034C352.674 461.551 351.473 460.349 349.993 460.349C348.512 460.349 347.312 461.551 347.312 463.034C347.312 464.517 348.512 465.719 349.993 465.719Z" fill="#A1A1C4"/>
<path id="Vector_141" d="M309.849 189.613C309.607 189.613 309.367 189.564 309.143 189.469C308.923 189.376 308.723 189.239 308.557 189.067C308.39 188.895 308.259 188.691 308.172 188.468C308.085 188.244 308.044 188.006 308.05 187.766C308.057 187.526 308.111 187.29 308.21 187.072L324.966 148.195C325.17 147.781 325.524 147.461 325.957 147.301C326.39 147.142 326.867 147.155 327.29 147.338C327.713 147.522 328.05 147.861 328.23 148.286C328.41 148.711 328.42 149.189 328.258 149.621L311.501 188.498C311.368 188.828 311.139 189.11 310.845 189.308C310.551 189.507 310.204 189.613 309.849 189.613Z" fill="#1E1E30"/>
<path id="Vector_142" d="M324.009 181.905C323.761 181.906 323.516 181.852 323.29 181.749C323.07 181.656 322.871 181.519 322.704 181.347C322.537 181.175 322.406 180.971 322.319 180.747C322.232 180.524 322.191 180.286 322.197 180.046C322.204 179.806 322.258 179.57 322.357 179.352L330.735 159.919C330.924 159.481 331.279 159.135 331.722 158.958C332.166 158.782 332.661 158.789 333.099 158.978C333.537 159.167 333.882 159.523 334.058 159.967C334.235 160.411 334.227 160.907 334.039 161.346L325.66 180.778C325.53 181.111 325.303 181.396 325.008 181.597C324.714 181.798 324.365 181.906 324.009 181.905Z" fill="#1E1E30"/>
<path id="Vector_143" d="M321.1 191.303C322.68 191.303 323.96 190.021 323.96 188.438C323.96 186.856 322.68 185.573 321.1 185.573C319.52 185.573 318.239 186.856 318.239 188.438C318.239 190.021 319.52 191.303 321.1 191.303Z" fill="#1E1E30"/>
<path id="Vector_144" d="M368.7 113.885H311.765C311.288 113.885 310.832 113.696 310.495 113.359C310.158 113.022 309.969 112.564 309.969 112.087C309.969 111.61 310.158 111.153 310.495 110.816C310.832 110.479 311.288 110.289 311.765 110.289H368.7C369.176 110.289 369.633 110.479 369.97 110.816C370.307 111.153 370.496 111.61 370.496 112.087C370.496 112.564 370.307 113.022 369.97 113.359C369.633 113.696 369.176 113.885 368.7 113.885Z" fill="#1E1E30"/>
<path id="Vector_145" d="M392.674 113.885H381.232C380.756 113.885 380.299 113.696 379.962 113.359C379.626 113.022 379.436 112.564 379.436 112.087C379.436 111.61 379.626 111.153 379.962 110.816C380.299 110.479 380.756 110.289 381.232 110.289H392.674C393.15 110.289 393.607 110.479 393.944 110.816C394.28 111.153 394.469 111.61 394.469 112.087C394.469 112.564 394.28 113.022 393.944 113.359C393.607 113.696 393.15 113.885 392.674 113.885Z" fill="#1E1E30"/>
<path id="Vector_146" d="M832.134 300.058C831.499 300.058 830.89 299.805 830.441 299.355C829.992 298.906 829.74 298.296 829.74 297.66V286.403C829.74 285.768 829.992 285.158 830.441 284.708C830.89 284.258 831.499 284.006 832.134 284.006C832.769 284.006 833.378 284.258 833.827 284.708C834.276 285.158 834.528 285.768 834.528 286.403V297.66C834.528 298.296 834.276 298.906 833.827 299.355C833.378 299.805 832.769 300.058 832.134 300.058Z" fill="#1E1E30"/>
<path id="Vector_147" d="M333.392 466.138C338.317 466.138 342.309 462.14 342.309 457.207C342.309 452.275 338.317 448.276 333.392 448.276C328.467 448.276 324.475 452.275 324.475 457.207C324.475 462.14 328.467 466.138 333.392 466.138Z" fill="#A1A1C4"/>
<path id="Vector_148" d="M342.884 479.17C345.33 479.17 347.312 477.184 347.312 474.734C347.312 472.285 345.33 470.299 342.884 470.299C340.438 470.299 338.455 472.285 338.455 474.734C338.455 477.184 340.438 479.17 342.884 479.17Z" fill="#A1A1C4"/>
<path id="Vector_149" d="M317.163 470.55C319.595 470.55 321.567 468.575 321.567 466.138C321.567 463.702 319.595 461.727 317.163 461.727C314.73 461.727 312.758 463.702 312.758 466.138C312.758 468.575 314.73 470.55 317.163 470.55Z" fill="#A1A1C4"/>
<path id="Vector_150" d="M547.886 495.317C556.784 495.317 563.996 488.093 563.996 479.182C563.996 470.27 556.784 463.046 547.886 463.046C538.989 463.046 531.776 470.27 531.776 479.182C531.776 488.093 538.989 495.317 547.886 495.317Z" fill="white"/>
<path id="Vector_151" d="M548.173 500.676C545.421 500.742 542.683 500.256 540.121 499.247C537.559 498.238 535.224 496.726 533.254 494.8C531.284 492.874 529.719 490.572 528.65 488.031C527.581 485.49 527.03 482.76 527.03 480.002C527.03 477.245 527.581 474.515 528.65 471.974C529.719 469.433 531.284 467.131 533.254 465.205C535.224 463.279 537.559 461.767 540.121 460.758C542.683 459.748 545.421 459.263 548.173 459.329C548.808 459.329 549.417 459.582 549.866 460.031C550.315 460.481 550.567 461.091 550.567 461.727C550.567 462.363 550.315 462.973 549.866 463.422C549.417 463.872 548.808 464.124 548.173 464.124C544.67 464.125 541.266 465.288 538.493 467.432C535.72 469.576 533.734 472.58 532.846 475.974C531.958 479.368 532.219 482.962 533.586 486.192C534.954 489.423 537.351 492.108 540.404 493.829C543.457 495.55 546.994 496.209 550.46 495.703C553.927 495.197 557.128 493.555 559.564 491.033C562 488.511 563.533 485.252 563.924 481.765C564.314 478.278 563.54 474.76 561.722 471.761C561.392 471.217 561.291 470.564 561.442 469.946C561.592 469.328 561.981 468.795 562.524 468.464C563.067 468.133 563.719 468.032 564.336 468.183C564.953 468.334 565.485 468.724 565.816 469.267C567.715 472.403 568.749 475.988 568.809 479.655C568.87 483.322 567.955 486.939 566.16 490.136C564.364 493.333 561.752 495.993 558.592 497.845C555.431 499.697 551.835 500.674 548.173 500.676Z" fill="#1E1E30"/>
<path id="Vector_152" d="M471.572 567.161C471.355 567.163 471.14 567.122 470.938 567.041C470.716 566.96 470.513 566.835 470.34 566.674C470.167 566.513 470.028 566.319 469.931 566.104C469.834 565.888 469.781 565.655 469.775 565.419C469.769 565.183 469.811 564.947 469.897 564.727L474.349 552.943C474.517 552.496 474.856 552.135 475.29 551.938C475.725 551.742 476.219 551.726 476.665 551.894C477.111 552.063 477.472 552.402 477.668 552.837C477.865 553.272 477.881 553.767 477.712 554.214L473.248 565.998C473.118 566.338 472.888 566.631 472.59 566.839C472.291 567.046 471.936 567.158 471.572 567.161Z" fill="#1E1E30"/>
<path id="Vector_153" d="M480.346 543.941C480.13 543.941 479.915 543.904 479.711 543.833C479.49 543.749 479.288 543.622 479.116 543.46C478.943 543.297 478.805 543.103 478.708 542.887C478.611 542.67 478.558 542.437 478.552 542.201C478.545 541.964 478.585 541.728 478.67 541.507L481.315 534.506C481.387 534.271 481.507 534.054 481.666 533.867C481.825 533.68 482.021 533.528 482.242 533.42C482.462 533.311 482.702 533.25 482.947 533.238C483.192 533.227 483.437 533.266 483.667 533.353C483.896 533.44 484.106 533.573 484.282 533.744C484.458 533.915 484.597 534.121 484.691 534.348C484.784 534.575 484.83 534.819 484.826 535.065C484.822 535.311 484.768 535.553 484.666 535.777L482.021 542.778C481.891 543.118 481.662 543.411 481.363 543.618C481.064 543.826 480.709 543.938 480.346 543.941Z" fill="#1E1E30"/>
<path id="Vector_154" d="M409.083 409.748H355.594C354.166 409.748 352.796 409.18 351.786 408.168C350.776 407.156 350.208 405.784 350.208 404.354C350.208 402.923 350.776 401.551 351.786 400.539C352.796 399.527 354.166 398.959 355.594 398.959H409.083C410.512 398.959 411.881 399.527 412.892 400.539C413.902 401.551 414.469 402.923 414.469 404.354C414.469 405.784 413.902 407.156 412.892 408.168C411.881 409.18 410.512 409.748 409.083 409.748Z" fill="#70BEE0"/>
<path id="Vector_155" d="M605.624 117.482H552.123C550.695 117.482 549.325 116.913 548.315 115.901C547.305 114.89 546.737 113.518 546.737 112.087C546.737 110.656 547.305 109.284 548.315 108.272C549.325 107.261 550.695 106.692 552.123 106.692H605.624C607.052 106.692 608.422 107.261 609.432 108.272C610.442 109.284 611.01 110.656 611.01 112.087C611.01 113.518 610.442 114.89 609.432 115.901C608.422 116.913 607.052 117.482 605.624 117.482Z" fill="#7997A3"/>
<path id="Vector_156" d="M724.307 117.482H699.544C698.115 117.482 696.745 116.913 695.735 115.901C694.725 114.89 694.158 113.518 694.158 112.087C694.158 110.656 694.725 109.284 695.735 108.272C696.745 107.261 698.115 106.692 699.544 106.692H724.307C725.736 106.692 727.106 107.261 728.116 108.272C729.126 109.284 729.693 110.656 729.693 112.087C729.693 113.518 729.126 114.89 728.116 115.901C727.106 116.913 725.736 117.482 724.307 117.482Z" fill="#7997A3"/>
<path id="Vector_157" d="M1066.52 569.379H26.0082C17.1241 569.379 9.92212 576.592 9.92212 585.491C9.92212 594.389 17.1241 601.602 26.0082 601.602H1066.52C1075.4 601.602 1082.61 594.389 1082.61 585.491C1082.61 576.592 1075.4 569.379 1066.52 569.379Z" fill="#FFCCC0"/>
<path id="Vector_158" d="M1082.61 586.21C1082.6 590.482 1080.91 594.579 1077.89 597.599C1074.88 600.62 1070.79 602.319 1066.52 602.322H26.0083C21.742 602.322 17.6504 600.625 14.6337 597.603C11.6169 594.581 9.92214 590.483 9.92214 586.21C9.91758 583.38 10.6653 580.599 12.0885 578.154C13.4966 580.604 15.5249 582.639 17.9688 584.054C20.4127 585.468 23.1857 586.212 26.0083 586.21H1066.52C1069.34 586.204 1072.11 585.457 1074.56 584.044C1077 582.63 1079.04 580.6 1080.45 578.154C1081.87 580.6 1082.62 583.381 1082.61 586.21Z" fill="#F29681"/>
<path id="Vector_159" d="M197.989 579.017H118.276C117.165 579.017 116.1 578.575 115.314 577.788C114.528 577.001 114.087 575.934 114.087 574.821C114.087 573.708 114.528 572.641 115.314 571.854C116.1 571.067 117.165 570.625 118.276 570.625H197.989C199.1 570.625 200.165 571.067 200.951 571.854C201.736 572.641 202.178 573.708 202.178 574.821C202.178 575.934 201.736 577.001 200.951 577.788C200.165 578.575 199.1 579.017 197.989 579.017Z" fill="#FDFDFF"/>
<path id="Vector_160" d="M240.945 579.017H221.077C219.966 579.017 218.9 578.575 218.115 577.788C217.329 577.001 216.888 575.934 216.888 574.821C216.888 573.708 217.329 572.641 218.115 571.854C218.9 571.067 219.966 570.625 221.077 570.625H240.945C242.056 570.625 243.121 571.067 243.907 571.854C244.693 572.641 245.134 573.708 245.134 574.821C245.134 575.934 244.693 577.001 243.907 577.788C243.121 578.575 242.056 579.017 240.945 579.017Z" fill="#FDFDFF"/>
<path id="Vector_161" d="M800.105 589.686H720.393C719.282 589.686 718.216 589.244 717.431 588.458C716.645 587.671 716.204 586.603 716.204 585.491C716.204 584.378 716.645 583.311 717.431 582.524C718.216 581.737 719.282 581.295 720.393 581.295H800.105C801.216 581.295 802.282 581.737 803.067 582.524C803.853 583.311 804.294 584.378 804.294 585.491C804.294 586.603 803.853 587.671 803.067 588.458C802.282 589.244 801.216 589.686 800.105 589.686Z" fill="#F29681"/>
<path id="Vector_162" d="M843.074 589.686H823.205C822.094 589.686 821.029 589.244 820.243 588.458C819.458 587.671 819.016 586.603 819.016 585.491C819.016 584.378 819.458 583.311 820.243 582.524C821.029 581.737 822.094 581.295 823.205 581.295H843.074C844.185 581.295 845.25 581.737 846.036 582.524C846.822 583.311 847.263 584.378 847.263 585.491C847.263 586.603 846.822 587.671 846.036 588.458C845.25 589.244 844.185 589.686 843.074 589.686Z" fill="#F29681"/>
<path id="Vector_163" d="M505.432 601.602H425.72C424.609 601.602 423.543 601.16 422.758 600.374C421.972 599.587 421.531 598.519 421.531 597.407C421.531 596.294 421.972 595.227 422.758 594.44C423.543 593.653 424.609 593.211 425.72 593.211H505.432C506.543 593.211 507.609 593.653 508.394 594.44C509.18 595.227 509.621 596.294 509.621 597.407C509.621 598.519 509.18 599.587 508.394 600.374C507.609 601.16 506.543 601.602 505.432 601.602Z" fill="#DD7B6B"/>
<path id="Vector_164" d="M548.401 601.602H528.533C527.422 601.602 526.356 601.16 525.57 600.374C524.785 599.587 524.344 598.519 524.344 597.407C524.344 596.294 524.785 595.227 525.57 594.44C526.356 593.653 527.422 593.211 528.533 593.211H548.401C549.512 593.211 550.578 593.653 551.363 594.44C552.149 595.227 552.59 596.294 552.59 597.407C552.59 598.519 552.149 599.587 551.363 600.374C550.578 601.16 549.512 601.602 548.401 601.602Z" fill="#DD7B6B"/>
<path id="Vector_165" d="M98.9463 601.602H19.2218C18.1108 601.602 17.0453 601.16 16.2597 600.374C15.4741 599.587 15.0327 598.519 15.0327 597.407C15.0327 596.294 15.4741 595.227 16.2597 594.44C17.0453 593.653 18.1108 593.211 19.2218 593.211H98.9463C100.057 593.211 101.123 593.653 101.908 594.44C102.694 595.227 103.135 596.294 103.135 597.407C103.135 598.519 102.694 599.587 101.908 600.374C101.123 601.16 100.057 601.602 98.9463 601.602Z" fill="#DD7B6B"/>
<path id="Vector_166" d="M141.903 601.602H122.082C120.971 601.602 119.906 601.16 119.12 600.374C118.335 599.587 117.893 598.519 117.893 597.407C117.893 596.294 118.335 595.227 119.12 594.44C119.906 593.653 120.971 593.211 122.082 593.211H141.951C143.062 593.211 144.127 593.653 144.913 594.44C145.698 595.227 146.14 596.294 146.14 597.407C146.14 598.519 145.698 599.587 144.913 600.374C144.127 601.16 143.062 601.602 141.951 601.602H141.903Z" fill="#DD7B6B"/>
<path id="Vector_167" d="M1028.4 601.602H948.687C947.576 601.602 946.51 601.16 945.725 600.374C944.939 599.587 944.498 598.519 944.498 597.407C944.498 596.294 944.939 595.227 945.725 594.44C946.51 593.653 947.576 593.211 948.687 593.211H1028.4C1029.51 593.211 1030.58 593.653 1031.36 594.44C1032.15 595.227 1032.59 596.294 1032.59 597.407C1032.59 598.519 1032.15 599.587 1031.36 600.374C1030.58 601.16 1029.51 601.602 1028.4 601.602Z" fill="#DD7B6B"/>
<path id="Vector_168" d="M1071.37 601.602H1051.49C1050.38 601.602 1049.31 601.16 1048.53 600.374C1047.74 599.587 1047.3 598.519 1047.3 597.407C1047.3 596.294 1047.74 595.227 1048.53 594.44C1049.31 593.653 1050.38 593.211 1051.49 593.211H1071.37C1072.48 593.211 1073.54 593.653 1074.33 594.44C1075.12 595.227 1075.56 596.294 1075.56 597.407C1075.56 598.519 1075.12 599.587 1074.33 600.374C1073.54 601.16 1072.48 601.602 1071.37 601.602Z" fill="#DD7B6B"/>
<path id="Vector_169" d="M1066.52 604H26.0083C21.1072 604 16.4067 602.05 12.9411 598.579C9.47543 595.108 7.52844 590.4 7.52844 585.491C7.52844 580.582 9.47543 575.874 12.9411 572.403C16.4067 568.932 21.1072 566.981 26.0083 566.981H314.9C315.535 566.981 316.144 567.234 316.593 567.684C317.042 568.133 317.294 568.743 317.294 569.379C317.294 570.015 317.042 570.625 316.593 571.074C316.144 571.524 315.535 571.777 314.9 571.777H26.0083C22.3769 571.777 18.8942 573.222 16.3264 575.793C13.7586 578.365 12.316 581.854 12.316 585.491C12.316 589.128 13.7586 592.616 16.3264 595.188C18.8942 597.76 22.3769 599.205 26.0083 599.205H1066.52C1070.15 599.205 1073.63 597.76 1076.2 595.188C1078.77 592.616 1080.21 589.128 1080.21 585.491C1080.21 581.854 1078.77 578.365 1076.2 575.793C1073.63 573.222 1070.15 571.777 1066.52 571.777H397.557C396.922 571.777 396.313 571.524 395.865 571.074C395.416 570.625 395.163 570.015 395.163 569.379C395.163 568.743 395.416 568.133 395.865 567.684C396.313 567.234 396.922 566.981 397.557 566.981H1066.52C1071.42 566.981 1076.12 568.932 1079.59 572.403C1083.05 575.874 1085 580.582 1085 585.491C1085 590.4 1083.05 595.108 1079.59 598.579C1076.12 602.05 1071.42 604 1066.52 604Z" fill="#1E1E30"/>
<path id="Vector_170" d="M353.201 571.824H335.918C335.283 571.824 334.674 571.572 334.225 571.122C333.776 570.673 333.524 570.063 333.524 569.427C333.524 568.791 333.776 568.181 334.225 567.732C334.674 567.282 335.283 567.029 335.918 567.029H353.201C353.835 567.029 354.444 567.282 354.893 567.732C355.342 568.181 355.594 568.791 355.594 569.427C355.594 570.063 355.342 570.673 354.893 571.122C354.444 571.572 353.835 571.824 353.201 571.824Z" fill="#1E1E30"/>
<path id="Vector_171" d="M377.33 571.824H368.437C367.802 571.824 367.193 571.572 366.744 571.122C366.296 570.673 366.043 570.063 366.043 569.427C366.043 568.791 366.296 568.181 366.744 567.732C367.193 567.282 367.802 567.029 368.437 567.029H377.33C377.965 567.029 378.574 567.282 379.023 567.732C379.472 568.181 379.724 568.791 379.724 569.427C379.724 570.063 379.472 570.673 379.023 571.122C378.574 571.572 377.965 571.824 377.33 571.824Z" fill="#1E1E30"/>
<path id="Vector_172" d="M961.373 570.207C960.739 570.207 960.13 569.954 959.681 569.504C959.232 569.055 958.98 568.445 958.98 567.809C958.978 563.308 957.81 558.885 955.589 554.972C953.368 551.059 950.171 547.791 946.31 545.487C942.449 543.184 938.057 541.925 933.564 541.832C929.071 541.74 924.631 542.817 920.679 544.96C920.121 545.262 919.465 545.329 918.857 545.147C918.249 544.965 917.738 544.549 917.436 543.989C917.134 543.429 917.067 542.773 917.249 542.164C917.431 541.554 917.847 541.042 918.405 540.74C923.086 538.212 928.341 536.943 933.657 537.058C938.973 537.173 944.169 538.667 948.736 541.394C953.303 544.122 957.086 547.99 959.714 552.619C962.343 557.249 963.727 562.483 963.731 567.809C963.731 568.439 963.484 569.043 963.043 569.492C962.602 569.94 962.002 570.197 961.373 570.207Z" fill="#1E1E30"/>
<path id="Vector_173" d="M904.737 570.206C904.102 570.206 903.493 569.954 903.044 569.504C902.595 569.054 902.343 568.445 902.343 567.809C902.344 560.766 904.756 553.936 909.177 548.46C909.369 548.198 909.612 547.978 909.892 547.813C910.171 547.648 910.481 547.541 910.803 547.5C911.125 547.459 911.451 547.483 911.763 547.572C912.075 547.661 912.366 547.813 912.618 548.018C912.869 548.223 913.077 548.477 913.228 548.764C913.378 549.052 913.469 549.367 913.494 549.691C913.52 550.015 913.479 550.341 913.375 550.649C913.27 550.956 913.105 551.24 912.888 551.481C909.165 556.106 907.134 561.868 907.131 567.809C907.131 568.124 907.069 568.435 906.949 568.726C906.828 569.017 906.652 569.281 906.43 569.504C906.207 569.727 905.944 569.903 905.653 570.024C905.363 570.144 905.051 570.206 904.737 570.206Z" fill="#1E1E30"/>
<path id="Vector_174" d="M166.115 466.14H159.329V569.38H166.115V466.14Z" fill="white"/>
<path id="Vector_175" opacity="0.39" d="M174.135 466.14H170.879V569.38H174.135V466.14Z" fill="white"/>
<path id="Vector_176" d="M175.942 455.937C175.466 455.937 175.009 455.747 174.672 455.41C174.336 455.073 174.146 454.616 174.146 454.139V427.238C174.153 423.677 175.569 420.264 178.084 417.747C180.599 415.23 184.008 413.814 187.564 413.811C190.58 413.714 193.44 412.446 195.539 410.275C197.639 408.104 198.812 405.199 198.812 402.177C198.812 399.154 197.639 396.25 195.539 394.079C193.44 391.908 190.58 390.64 187.564 390.543C187.087 390.543 186.631 390.353 186.294 390.016C185.957 389.679 185.768 389.221 185.768 388.744C185.768 388.268 185.957 387.81 186.294 387.473C186.631 387.136 187.087 386.946 187.564 386.946C191.523 387.058 195.282 388.711 198.044 391.555C200.805 394.399 202.349 398.21 202.349 402.177C202.349 406.144 200.805 409.955 198.044 412.799C195.282 415.643 191.523 417.296 187.564 417.408C184.96 417.408 182.462 418.443 180.619 420.286C178.777 422.129 177.74 424.63 177.737 427.238V454.139C177.737 454.616 177.548 455.073 177.211 455.41C176.875 455.747 176.418 455.937 175.942 455.937Z" fill="#1E1E30"/>
<path id="Vector_177" d="M161.328 444.08C160.852 444.08 160.395 443.891 160.058 443.554C159.722 443.217 159.532 442.759 159.532 442.282V415.681C159.532 415.204 159.722 414.747 160.058 414.409C160.395 414.072 160.852 413.883 161.328 413.883C161.804 413.883 162.261 414.072 162.597 414.409C162.934 414.747 163.123 415.204 163.123 415.681V442.282C163.123 442.759 162.934 443.217 162.597 443.554C162.261 443.891 161.804 444.08 161.328 444.08Z" fill="#1E1E30"/>
<path id="Vector_178" d="M190.305 458.13C189.829 458.13 189.372 457.941 189.035 457.604C188.699 457.267 188.51 456.809 188.51 456.332V429.719C188.51 429.242 188.699 428.785 189.035 428.448C189.372 428.11 189.829 427.921 190.305 427.921C190.781 427.921 191.238 428.11 191.574 428.448C191.911 428.785 192.1 429.242 192.1 429.719V456.332C192.1 456.809 191.911 457.267 191.574 457.604C191.238 457.941 190.781 458.13 190.305 458.13Z" fill="#1E1E30"/>
<path id="Vector_179" d="M195.188 498.278C194.302 498.278 193.453 497.926 192.827 497.298C192.201 496.671 191.849 495.82 191.849 494.933V466.762H198.527V494.933C198.527 495.82 198.176 496.671 197.549 497.298C196.923 497.926 196.074 498.278 195.188 498.278Z" fill="#DD9742"/>
<path id="Vector_180" d="M211.741 468.572C211.673 470.089 211.023 471.521 209.927 472.57C208.832 473.619 207.374 474.205 205.858 474.205C204.342 474.205 202.885 473.619 201.789 472.57C200.694 471.521 200.044 470.089 199.976 468.572" fill="#DD9742"/>
<path id="Vector_181" opacity="0.23" d="M147.767 479.697H147.755C145.587 479.697 143.83 481.458 143.83 483.629V505.495C143.83 507.667 145.587 509.427 147.755 509.427H147.767C149.935 509.427 151.693 507.667 151.693 505.495V483.629C151.693 481.458 149.935 479.697 147.767 479.697Z" fill="white"/>
<path id="Vector_182" d="M289.383 372.262C288.589 372.262 287.828 371.946 287.267 371.384C286.706 370.822 286.391 370.059 286.391 369.265V309.025C286.391 308.23 286.706 307.468 287.267 306.906C287.828 306.344 288.589 306.028 289.383 306.028C290.177 306.028 290.938 306.344 291.499 306.906C292.06 307.468 292.375 308.23 292.375 309.025V369.229C292.38 369.625 292.306 370.019 292.158 370.387C292.01 370.754 291.79 371.089 291.512 371.371C291.233 371.653 290.902 371.877 290.536 372.03C290.171 372.183 289.779 372.262 289.383 372.262Z" fill="#3C5159"/>
<path id="Vector_183" d="M806.365 240.25C805.572 240.25 804.811 239.934 804.25 239.372C803.689 238.81 803.373 238.048 803.373 237.253V177.025C803.373 176.23 803.689 175.468 804.25 174.906C804.811 174.344 805.572 174.028 806.365 174.028C807.159 174.028 807.92 174.344 808.481 174.906C809.042 175.468 809.357 176.23 809.357 177.025V237.253C809.357 238.048 809.042 238.81 808.481 239.372C807.92 239.934 807.159 240.25 806.365 240.25Z" fill="#3C5159"/>
<path id="Vector_184" d="M806.365 383.866C805.572 383.866 804.811 383.55 804.25 382.988C803.689 382.426 803.373 381.664 803.373 380.869V320.63C803.373 319.835 803.689 319.073 804.25 318.511C804.811 317.949 805.572 317.633 806.365 317.633C807.159 317.633 807.92 317.949 808.481 318.511C809.042 319.073 809.357 319.835 809.357 320.63V380.869C809.357 381.664 809.042 382.426 808.481 382.988C807.92 383.55 807.159 383.866 806.365 383.866Z" fill="#3C5159"/>
<path id="Vector_185" d="M799.064 325.964C797.953 325.964 796.888 325.522 796.102 324.735C795.316 323.948 794.875 322.881 794.875 321.768V261.529C794.875 260.416 795.316 259.349 796.102 258.562C796.888 257.775 797.953 257.333 799.064 257.333C800.175 257.333 801.241 257.775 802.026 258.562C802.812 259.349 803.253 260.416 803.253 261.529V321.768C803.253 322.319 803.145 322.865 802.934 323.374C802.724 323.883 802.415 324.345 802.026 324.735C801.637 325.125 801.175 325.434 800.667 325.644C800.159 325.855 799.614 325.964 799.064 325.964Z" fill="#70BEE0"/>
<path id="Vector_186" d="M799.064 160.183C797.953 160.183 796.888 159.741 796.102 158.954C795.316 158.167 794.875 157.1 794.875 155.987V143.711C794.875 142.599 795.316 141.531 796.102 140.745C796.888 139.958 797.953 139.516 799.064 139.516C800.175 139.516 801.241 139.958 802.026 140.745C802.812 141.531 803.253 142.599 803.253 143.711V155.987C803.253 157.1 802.812 158.167 802.026 158.954C801.241 159.741 800.175 160.183 799.064 160.183Z" fill="#70BEE0"/>
<path id="Vector_187" d="M296.828 302.36C295.717 302.36 294.651 301.918 293.866 301.131C293.08 300.344 292.639 299.277 292.639 298.164V285.888C292.639 284.775 293.08 283.708 293.866 282.921C294.651 282.134 295.717 281.692 296.828 281.692C297.939 281.692 299.004 282.134 299.79 282.921C300.575 283.708 301.017 284.775 301.017 285.888V298.164C301.017 299.277 300.575 300.344 299.79 301.131C299.004 301.918 297.939 302.36 296.828 302.36Z" fill="#70BEE0"/>
<path id="Vector_188" d="M716.06 510.746H703.768C702.657 510.746 701.592 510.304 700.806 509.517C700.021 508.73 699.579 507.663 699.579 506.55C699.579 505.437 700.021 504.37 700.806 503.583C701.592 502.797 702.657 502.354 703.768 502.354H716.036C717.147 502.354 718.213 502.797 718.999 503.583C719.784 504.37 720.226 505.437 720.226 506.55C720.226 507.663 719.784 508.73 718.999 509.517C718.213 510.304 717.147 510.746 716.036 510.746H716.06Z" fill="#A1A1C4"/>
<path id="Vector_189" d="M296.828 392.916C295.717 392.916 294.651 392.474 293.865 391.687C293.08 390.9 292.639 389.833 292.639 388.72V376.42C292.639 375.308 293.08 374.24 293.865 373.454C294.651 372.667 295.717 372.225 296.828 372.225C297.939 372.225 299.004 372.667 299.79 373.454C300.575 374.24 301.017 375.308 301.017 376.42V388.696C301.02 389.249 300.914 389.797 300.705 390.309C300.496 390.821 300.187 391.286 299.798 391.679C299.409 392.071 298.946 392.382 298.436 392.594C297.926 392.807 297.38 392.916 296.828 392.916Z" fill="#70BEE0"/>
<path id="Vector_190" d="M296.828 152.248C295.717 152.248 294.651 151.805 293.866 151.019C293.08 150.232 292.639 149.165 292.639 148.052V135.764C292.639 134.651 293.08 133.584 293.866 132.797C294.651 132.01 295.717 131.568 296.828 131.568C297.939 131.568 299.004 132.01 299.79 132.797C300.575 133.584 301.017 134.651 301.017 135.764V148.052C301.017 149.165 300.575 150.232 299.79 151.019C299.004 151.805 297.939 152.248 296.828 152.248Z" fill="#70BEE0"/>
<path id="Vector_191" d="M803.349 417.815H292.89C292.413 417.815 291.957 417.626 291.62 417.289C291.283 416.951 291.094 416.494 291.094 416.017V263.387C291.094 262.91 291.283 262.452 291.62 262.115C291.957 261.778 292.413 261.589 292.89 261.589C293.366 261.589 293.822 261.778 294.159 262.115C294.496 262.452 294.685 262.91 294.685 263.387V414.219H801.554V133.462H294.685V204.502C294.685 204.979 294.496 205.436 294.159 205.774C293.822 206.111 293.366 206.3 292.89 206.3C292.413 206.3 291.957 206.111 291.62 205.774C291.283 205.436 291.094 204.979 291.094 204.502V131.663C291.094 131.187 291.283 130.729 291.62 130.392C291.957 130.055 292.413 129.865 292.89 129.865H803.349C803.825 129.865 804.282 130.055 804.619 130.392C804.955 130.729 805.144 131.187 805.144 131.663V415.981C805.149 416.22 805.106 416.458 805.018 416.68C804.93 416.903 804.799 417.105 804.631 417.276C804.464 417.447 804.265 417.582 804.044 417.675C803.824 417.768 803.588 417.815 803.349 417.815Z" fill="#1E1E30"/>
<path id="Vector_192" d="M178.515 467.781H184.643V482.167C184.643 482.981 184.321 483.761 183.746 484.337C183.171 484.912 182.392 485.236 181.579 485.236C180.767 485.236 179.987 484.912 179.413 484.337C178.838 483.761 178.515 482.981 178.515 482.167V467.781Z" fill="#DD9742"/>
<path id="Vector_193" d="M210.149 571.177H143.124C140.764 571.177 138.501 570.239 136.831 568.569C135.162 566.899 134.222 564.633 134.219 562.27V530.502C134.219 529.866 134.471 529.256 134.92 528.806C135.369 528.357 135.978 528.104 136.613 528.104C137.247 528.104 137.856 528.357 138.305 528.806C138.754 529.256 139.006 529.866 139.006 530.502V562.234C139.009 563.325 139.445 564.371 140.216 565.142C140.988 565.913 142.034 566.346 143.124 566.346H210.149C211.235 566.339 212.274 565.904 213.041 565.134C213.807 564.364 214.239 563.321 214.243 562.234V473.631C214.239 472.538 213.805 471.491 213.033 470.718C212.262 469.946 211.216 469.51 210.125 469.507H143.1C142.009 469.51 140.963 469.946 140.192 470.718C139.42 471.491 138.986 472.538 138.982 473.631V498.866C138.982 499.501 138.73 500.111 138.281 500.561C137.832 501.011 137.223 501.263 136.589 501.263C135.954 501.263 135.345 501.011 134.896 500.561C134.447 500.111 134.195 499.501 134.195 498.866V473.631C134.198 471.266 135.137 469 136.806 467.328C138.476 465.656 140.739 464.715 143.1 464.712H210.125C212.486 464.715 214.749 465.656 216.418 467.328C218.088 469 219.027 471.266 219.03 473.631V562.234C219.033 563.405 218.806 564.565 218.361 565.649C217.917 566.732 217.263 567.717 216.439 568.548C215.614 569.378 214.634 570.038 213.555 570.489C212.476 570.94 211.319 571.174 210.149 571.177Z" fill="#1E1E30"/>
<path id="Vector_194" d="M136.612 521.475C135.977 521.475 135.369 521.223 134.92 520.773C134.471 520.323 134.219 519.713 134.219 519.078V508.924C134.219 508.288 134.471 507.678 134.92 507.229C135.369 506.779 135.977 506.526 136.612 506.526C137.247 506.526 137.856 506.779 138.305 507.229C138.754 507.678 139.006 508.288 139.006 508.924V519.078C139.006 519.713 138.754 520.323 138.305 520.773C137.856 521.223 137.247 521.475 136.612 521.475Z" fill="#1E1E30"/>
<path id="Vector_195" d="M1036.6 433.867C1041.81 433.867 1046.04 429.632 1046.04 424.409C1046.04 419.185 1041.81 414.95 1036.6 414.95C1031.38 414.95 1027.15 419.185 1027.15 424.409C1027.15 429.632 1031.38 433.867 1036.6 433.867Z" fill="#DC166D"/>
<path id="Vector_196" d="M1036.6 435.666C1034.37 435.666 1032.2 435.005 1030.35 433.768C1028.51 432.532 1027.06 430.774 1026.21 428.717C1025.36 426.66 1025.14 424.396 1025.57 422.213C1026.01 420.029 1027.08 418.024 1028.65 416.449C1030.22 414.875 1032.22 413.803 1034.4 413.369C1036.59 412.934 1038.84 413.157 1040.9 414.009C1042.95 414.861 1044.71 416.304 1045.94 418.155C1047.18 420.006 1047.84 422.183 1047.84 424.409C1047.83 427.393 1046.65 430.255 1044.54 432.365C1042.43 434.475 1039.58 435.662 1036.6 435.666ZM1036.6 416.761C1035.08 416.761 1033.61 417.21 1032.35 418.053C1031.09 418.895 1030.11 420.092 1029.53 421.492C1028.95 422.893 1028.8 424.434 1029.1 425.92C1029.39 427.406 1030.12 428.771 1031.19 429.842C1032.26 430.913 1033.63 431.641 1035.11 431.935C1036.6 432.23 1038.14 432.076 1039.53 431.495C1040.93 430.913 1042.12 429.929 1042.96 428.668C1043.8 427.407 1044.25 425.925 1044.25 424.409C1044.25 423.404 1044.05 422.408 1043.66 421.479C1043.28 420.551 1042.72 419.707 1042 418.997C1041.29 418.286 1040.45 417.723 1039.52 417.339C1038.6 416.956 1037.6 416.759 1036.6 416.761Z" fill="#1E1E30"/>
<path id="Vector_197" d="M1017.35 470.922H1017.14C1016.9 470.895 1016.68 470.822 1016.47 470.707C1016.27 470.593 1016.08 470.439 1015.94 470.254C1015.79 470.069 1015.69 469.857 1015.62 469.63C1015.56 469.403 1015.54 469.166 1015.57 468.932L1018.15 446.538L1012.44 445.831C1011.97 445.774 1011.53 445.529 1011.24 445.152C1010.94 444.774 1010.81 444.294 1010.86 443.817C1010.92 443.34 1011.17 442.905 1011.54 442.609C1011.92 442.312 1012.4 442.177 1012.88 442.235L1020.37 443.158C1020.84 443.221 1021.26 443.466 1021.55 443.84C1021.85 444.214 1021.98 444.688 1021.92 445.16L1019.14 469.315C1019.09 469.756 1018.88 470.164 1018.55 470.461C1018.22 470.757 1017.79 470.921 1017.35 470.922Z" fill="#1E1E30"/>
<path id="Vector_198" d="M813.882 513.658H787.55C786.281 513.658 785.063 513.153 784.165 512.254C783.267 511.354 782.763 510.135 782.763 508.863C782.763 507.591 783.267 506.371 784.165 505.472C785.063 504.573 786.281 504.068 787.55 504.068H813.882C819.208 504.068 825.264 498.338 825.264 493.279V478.402C825.264 477.13 825.769 475.91 826.666 475.011C827.564 474.112 828.782 473.606 830.052 473.606C831.321 473.606 832.539 474.112 833.437 475.011C834.335 475.91 834.839 477.13 834.839 478.402V493.303C834.779 503.576 824.402 513.658 813.882 513.658Z" fill="white"/>
<path id="Vector_199" d="M331.381 514.965H305.05C303.78 514.965 302.562 514.46 301.665 513.561C300.767 512.662 300.262 511.442 300.262 510.17C300.262 508.898 300.767 507.679 301.665 506.779C302.562 505.88 303.78 505.375 305.05 505.375H331.381C332.651 505.375 333.869 505.88 334.767 506.779C335.664 507.679 336.169 508.898 336.169 510.17C336.169 511.442 335.664 512.662 334.767 513.561C333.869 514.46 332.651 514.965 331.381 514.965Z" fill="white"/>
<path id="Vector_200" d="M812.936 513.562H283.314C277.526 513.556 271.977 511.25 267.884 507.151C263.792 503.052 261.489 497.494 261.483 491.696V332.676C261.483 332.041 261.735 331.431 262.184 330.981C262.633 330.531 263.242 330.279 263.877 330.279C264.512 330.279 265.121 330.531 265.57 330.981C266.018 331.431 266.271 332.041 266.271 332.676V491.696C266.274 496.223 268.071 500.563 271.266 503.764C274.462 506.964 278.795 508.764 283.314 508.767H812.936C817.454 508.761 821.785 506.96 824.98 503.76C828.175 500.56 829.973 496.222 829.979 491.696V314.083C829.979 313.447 830.232 312.837 830.68 312.388C831.129 311.938 831.738 311.686 832.373 311.686C833.008 311.686 833.617 311.938 834.066 312.388C834.515 312.837 834.767 313.447 834.767 314.083V491.696C834.76 497.494 832.458 503.052 828.366 507.151C824.273 511.25 818.724 513.556 812.936 513.562Z" fill="#1E1E30"/>
</g>
</g>
</g>
</svg>
